<svg id="Capa_1" xmlns="http://www.w3.org/2000/svg" viewBox="0 0 2409.4 5669.3"><style>.st0{fill:#014F9A;} .st1{fill:#FFFFFF;} .st2{fill:#010202;} .st3{fill:#FF4827;} .st4{enable-background:new ;}</style><path class="st0" d="M0 0h2409.4v5669.3H0z"/><path class="st1" d="M2409.4 2449.9v1394.8L0 3219.4V1824.6z"/><path class="st2" d="M623.4 2671c0 11.3-2.9 20.2-8.6 26.6-5.7 6.4-13.6 9.6-23.7 9.6-6.2 0-11.7-1.5-16.6-4.4s-8.5-7.1-11.2-12.6c-2.6-5.5-3.9-11.8-3.9-19.2 0-11.3 2.8-20.2 8.5-26.5 5.7-6.3 13.5-9.5 23.6-9.5 9.7 0 17.5 3.2 23.2 9.7 5.8 6.5 8.7 15.3 8.7 26.3zm-53 0c0 8.9 1.8 15.7 5.3 20.3 3.6 4.7 8.8 7 15.7 7 6.9 0 12.1-2.3 15.7-7 3.6-4.6 5.4-11.4 5.4-20.3 0-8.8-1.8-15.6-5.4-20.2-3.6-4.6-8.9-6.9-15.8-6.9s-12.1 2.3-15.6 6.8c-3.6 4.6-5.3 11.4-5.3 20.3zm116.3 15.9c0 6.5-2.4 11.5-7.2 15-4.8 3.5-11.6 5.3-20.3 5.3-9.2 0-16.4-1.5-21.6-4.4v-9.8c3.3 1.7 6.9 3 10.8 4 3.8 1 7.5 1.5 11.1 1.5 5.5 0 9.7-.9 12.7-2.6 3-1.8 4.4-4.4 4.4-8 0-2.7-1.2-5-3.5-7-2.3-1.9-6.9-4.2-13.7-6.8-6.5-2.4-11.1-4.5-13.8-6.3-2.7-1.8-4.8-3.8-6.1-6.1s-2-5-2-8.2c0-5.7 2.3-10.1 6.9-13.4 4.6-3.3 10.9-4.9 19-4.9 7.5 0 14.8 1.5 22 4.6l-3.7 8.6c-7-2.9-13.3-4.3-19-4.3-5 0-8.8.8-11.3 2.3-2.5 1.6-3.8 3.7-3.8 6.5 0 1.9.5 3.4 1.4 4.8 1 1.3 2.5 2.6 4.6 3.7 2.1 1.2 6.2 2.9 12.2 5.1 8.3 3 13.8 6 16.7 9.1 2.8 2.9 4.2 6.7 4.2 11.3zm74 19l-12.8-40.8c-.8-2.5-2.3-8.2-4.5-17h-.5c-1.7 7.4-3.2 13.1-4.4 17.1l-13.1 40.7h-12.2l-19-69.6h11c4.5 17.5 7.9 30.8 10.3 39.9s3.7 15.3 4 18.5h.5c.5-2.4 1.2-5.5 2.3-9.4 1-3.8 1.9-6.9 2.7-9.1l12.8-39.9h11.4l12.4 39.9c2.4 7.3 4 13.4 4.8 18.3h.5c.2-1.5.6-3.9 1.4-7 .7-3.2 5.2-20.2 13.2-51.2h10.9l-19.2 69.6h-12.5zm42.7-6.8c0-2.8.6-5 1.9-6.4 1.3-1.5 3.1-2.2 5.6-2.2 2.5 0 4.4.7 5.7 2.2 1.4 1.5 2.1 3.6 2.1 6.4 0 2.8-.7 4.9-2.1 6.3s-3.3 2.2-5.7 2.2c-2.2 0-3.9-.7-5.4-2-1.3-1.2-2.1-3.4-2.1-6.5zm124.8 6.8v-45.3c0-5.5-1.2-9.7-3.6-12.5-2.4-2.8-6.1-4.2-11-4.2-6.6 0-11.4 1.9-14.5 5.6-3.1 3.8-4.7 9.6-4.7 17.4v38.8h-10.5v-45.3c0-5.5-1.2-9.7-3.6-12.5-2.4-2.8-6.1-4.2-11.1-4.2-6.6 0-11.4 2-14.5 5.9-3.1 4-4.6 10.4-4.6 19.5v36.5h-10.5V2636h8.6l1.7 9.5h.5c2-3.4 4.8-6 8.4-7.9s7.7-2.9 12.2-2.9c10.9 0 18 3.9 21.3 11.8h.5c2.1-3.6 5.1-6.5 9-8.6 3.9-2.1 8.4-3.2 13.5-3.2 7.9 0 13.8 2 17.7 6.1 3.9 4 5.9 10.5 5.9 19.4v45.4h-10.7zm92.3-34.9c0 11.3-2.9 20.2-8.6 26.6-5.7 6.4-13.6 9.6-23.7 9.6-6.2 0-11.7-1.5-16.6-4.4s-8.5-7.1-11.2-12.6c-2.6-5.5-3.9-11.8-3.9-19.2 0-11.3 2.8-20.2 8.5-26.5 5.7-6.3 13.5-9.5 23.6-9.5 9.7 0 17.5 3.2 23.2 9.7 5.9 6.5 8.7 15.3 8.7 26.3zm-53 0c0 8.9 1.8 15.7 5.3 20.3 3.6 4.7 8.8 7 15.7 7 6.9 0 12.1-2.3 15.7-7 3.6-4.6 5.4-11.4 5.4-20.3 0-8.8-1.8-15.6-5.4-20.2-3.6-4.6-8.9-6.9-15.8-6.9s-12.1 2.3-15.6 6.8c-3.5 4.6-5.3 11.4-5.3 20.3zm94 27.4c1.9 0 3.7-.1 5.4-.4 1.7-.3 3.1-.6 4.1-.9v8.1c-1.1.6-2.8 1-5 1.4-2.2.4-4.2.5-6 .5-13.5 0-20.2-7.1-20.2-21.3v-41.4h-10v-5.1l10-4.4 4.4-14.9h6.1v16.1h20.2v8.2h-20.2v40.9c0 4.2 1 7.4 3 9.6 2 2.5 4.7 3.6 8.2 3.6zm45.9 0c1.9 0 3.7-.1 5.4-.4 1.7-.3 3.1-.6 4.1-.9v8.1c-1.1.6-2.8 1-5 1.4-2.2.4-4.2.5-6 .5-13.5 0-20.2-7.1-20.2-21.3v-41.4h-10v-5.1l10-4.4 4.4-14.9h6.1v16.1h20.2v8.2h-20.2v40.9c0 4.2 1 7.4 3 9.6 2 2.5 4.7 3.6 8.2 3.6zm83.4-27.4c0 11.3-2.9 20.2-8.6 26.6-5.7 6.4-13.6 9.6-23.7 9.6-6.2 0-11.7-1.5-16.6-4.4s-8.5-7.1-11.2-12.6c-2.6-5.5-3.9-11.8-3.9-19.2 0-11.3 2.8-20.2 8.5-26.5 5.7-6.3 13.5-9.5 23.6-9.5 9.7 0 17.5 3.2 23.2 9.7 5.9 6.5 8.7 15.3 8.7 26.3zm-53 0c0 8.9 1.8 15.7 5.3 20.3 3.6 4.7 8.8 7 15.7 7 6.9 0 12.1-2.3 15.7-7 3.6-4.6 5.4-11.4 5.4-20.3 0-8.8-1.8-15.6-5.4-20.2-3.6-4.6-8.9-6.9-15.8-6.9s-12.1 2.3-15.6 6.8c-3.5 4.6-5.3 11.4-5.3 20.3z"/><path class="st3" d="M1239.5 2651.4v-8.7h59v8.7h-59zm0 26v-8.7h59v8.7h-59z"/><path class="st0" d="M858.5 2769.1l1 1.4c-1.1 4.2-2.7 9.2-4.8 14.8-2.1 5.6-4.2 10.8-6.5 15.6h-7.7c3-12.1 5.1-22.7 6.5-31.8h11.5zm23.4 0l.9 1.4c-1 3.9-2.5 8.6-4.6 14.2-2 5.6-4.2 11-6.6 16.2h-7.9c1.1-4.2 2.3-9.6 3.7-16.1 1.4-6.5 2.4-11.7 2.9-15.7h11.6zm74.1 27c0 9.4-3.2 16.6-9.6 21.7-6.4 5.1-15.6 7.6-27.5 7.6H908v36.5h-10.8v-92.8h24.1c23.1 0 34.7 9 34.7 27zm-48.1 20h9.7c9.6 0 16.5-1.5 20.8-4.6 4.3-3.1 6.4-8 6.4-14.9 0-6.1-2-10.7-6-13.7s-10.3-4.5-18.8-4.5h-12.1v37.7zm95.3 47c-10.3 0-18.4-3.1-24.3-9.4-5.9-6.3-8.9-15-8.9-26.1 0-11.2 2.8-20.1 8.3-26.7s12.9-9.9 22.2-9.9c8.7 0 15.6 2.9 20.7 8.6 5.1 5.7 7.6 13.3 7.6 22.7v6.7h-47.9c.2 8.2 2.3 14.4 6.2 18.6 3.9 4.2 9.4 6.3 16.5 6.3 7.5 0 14.9-1.6 22.2-4.7v9.4c-3.7 1.6-7.2 2.8-10.6 3.5-3.3.7-7.3 1-12 1zm-2.9-63.2c-5.6 0-10 1.8-13.4 5.5-3.3 3.6-5.3 8.7-5.9 15.1h36.4c0-6.6-1.5-11.7-4.4-15.3-2.9-3.6-7.2-5.3-12.7-5.3zm89.2 62l-2.1-9.9h-.5c-3.5 4.4-6.9 7.3-10.4 8.9-3.4 1.5-7.8 2.3-12.9 2.3-6.9 0-12.3-1.8-16.2-5.3-3.9-3.6-5.9-8.6-5.9-15.2 0-14 11.2-21.4 33.7-22.1l11.8-.4v-4.3c0-5.5-1.2-9.5-3.5-12.1s-6.1-3.9-11.3-3.9c-5.8 0-12.4 1.8-19.7 5.3l-3.2-8.1c3.4-1.9 7.2-3.3 11.3-4.4 4.1-1.1 8.2-1.6 12.3-1.6 8.3 0 14.4 1.8 18.4 5.5s6 9.6 6 17.7v47.5h-7.8zm-23.8-7.5c6.6 0 11.7-1.8 15.5-5.4 3.7-3.6 5.6-8.6 5.6-15.1v-6.3l-10.5.4c-8.4.3-14.4 1.6-18.1 3.9-3.7 2.3-5.6 5.9-5.6 10.8 0 3.8 1.2 6.7 3.5 8.7 2.3 2.1 5.5 3 9.6 3zm81.1 8.7c-10.1 0-17.9-3.1-23.4-9.3s-8.3-15-8.3-26.3c0-11.6 2.8-20.6 8.4-27 5.6-6.3 13.6-9.5 24-9.5 3.3 0 6.7.4 10 1.1 3.3.7 6 1.6 7.9 2.5l-3.2 9c-2.3-.9-4.9-1.7-7.6-2.3-2.8-.6-5.2-.9-7.3-.9-14.1 0-21.2 9-21.2 27 0 8.5 1.7 15.1 5.2 19.7 3.4 4.6 8.6 6.9 15.3 6.9 5.8 0 11.7-1.2 17.8-3.7v9.3c-4.6 2.3-10.5 3.5-17.6 3.5zm63.5 0c-10.3 0-18.4-3.1-24.3-9.4-5.9-6.3-8.9-15-8.9-26.1 0-11.2 2.8-20.1 8.3-26.7s12.9-9.9 22.2-9.9c8.7 0 15.6 2.9 20.7 8.6 5.1 5.7 7.6 13.3 7.6 22.7v6.7H1188c.2 8.2 2.3 14.4 6.2 18.6 3.9 4.2 9.4 6.3 16.5 6.3 7.5 0 14.9-1.6 22.2-4.7v9.4c-3.7 1.6-7.2 2.8-10.6 3.5-3.3.7-7.3 1-12 1zm-2.8-63.2c-5.6 0-10 1.8-13.4 5.5-3.3 3.6-5.3 8.7-5.9 15.1h36.4c0-6.6-1.5-11.7-4.4-15.3-3-3.6-7.2-5.3-12.7-5.3zm57.4 46.9l1 1.5c-1.1 4.2-2.7 9.2-4.8 14.8-2.1 5.6-4.2 10.8-6.5 15.6h-7.9c1.1-4.4 2.4-9.8 3.8-16.3s2.3-11.7 2.9-15.6h11.5zm56.2 15.1v-92.8h10.8v83h40.9v9.8h-51.7zM1447 2827c0 11.3-2.9 20.2-8.6 26.6s-13.6 9.6-23.7 9.6c-6.2 0-11.7-1.5-16.6-4.4s-8.5-7.1-11.2-12.6-3.9-11.8-3.9-19.2c0-11.3 2.8-20.2 8.5-26.5 5.7-6.3 13.5-9.5 23.6-9.5 9.7 0 17.5 3.2 23.2 9.7 5.9 6.5 8.7 15.3 8.7 26.3zm-53 0c0 8.9 1.8 15.7 5.3 20.3 3.6 4.7 8.8 7 15.7 7s12.1-2.3 15.7-7c3.6-4.6 5.4-11.4 5.4-20.3 0-8.8-1.8-15.6-5.4-20.2-3.6-4.6-8.9-6.9-15.8-6.9s-12.1 2.3-15.6 6.8c-3.5 4.6-5.3 11.4-5.3 20.3zm86.7 34.9l-26.4-69.6h11.3l15 41.3c3.4 9.6 5.4 15.9 6 18.8h.5c.5-2.2 1.9-6.9 4.4-13.9 2.5-7 8-22.4 16.7-46.1h11.3l-26.4 69.6h-12.4zm79.3 1.2c-10.3 0-18.4-3.1-24.3-9.4-5.9-6.3-8.9-15-8.9-26.1 0-11.2 2.8-20.1 8.3-26.7s12.9-9.9 22.2-9.9c8.7 0 15.6 2.9 20.7 8.6 5.1 5.7 7.6 13.3 7.6 22.7v6.7h-47.9c.2 8.2 2.3 14.4 6.2 18.6 3.9 4.2 9.4 6.3 16.5 6.3 7.5 0 14.9-1.6 22.2-4.7v9.4c-3.7 1.6-7.2 2.8-10.6 3.5s-7.3 1-12 1zm-2.8-63.2c-5.6 0-10 1.8-13.4 5.5-3.3 3.6-5.3 8.7-5.9 15.1h36.4c0-6.6-1.5-11.7-4.4-15.3-3-3.6-7.2-5.3-12.7-5.3zm122.9 62l-2.1-9.9h-.5c-3.5 4.4-6.9 7.3-10.4 8.9-3.5 1.5-7.8 2.3-12.9 2.3-6.9 0-12.3-1.8-16.2-5.3s-5.9-8.6-5.9-15.2c0-14 11.2-21.4 33.7-22.1l11.8-.4v-4.3c0-5.5-1.2-9.5-3.5-12.1-2.3-2.6-6.1-3.9-11.3-3.9-5.8 0-12.4 1.8-19.7 5.3l-3.2-8.1c3.4-1.9 7.2-3.3 11.3-4.4 4.1-1.1 8.2-1.6 12.3-1.6 8.3 0 14.4 1.8 18.4 5.5 4 3.7 6 9.6 6 17.7v47.5h-7.8zm-23.8-7.5c6.6 0 11.7-1.8 15.5-5.4 3.7-3.6 5.6-8.6 5.6-15.1v-6.3l-10.5.4c-8.4.3-14.4 1.6-18.1 3.9-3.7 2.3-5.6 5.9-5.6 10.8 0 3.8 1.2 6.7 3.5 8.7 2.2 2.1 5.5 3 9.6 3zm100.9 7.5v-45c0-5.7-1.3-9.9-3.9-12.7-2.6-2.8-6.6-4.2-12.1-4.2-7.3 0-12.6 2-16 5.9-3.4 3.9-5.1 10.4-5.1 19.5v36.5h-10.5v-69.6h8.6l1.7 9.5h.5c2.2-3.4 5.2-6.1 9.1-8 3.9-1.9 8.2-2.8 13-2.8 8.4 0 14.7 2 18.9 6.1 4.2 4 6.3 10.5 6.3 19.4v45.4h-10.5zm79.6-9.4h-.6c-4.9 7.1-12.1 10.6-21.8 10.6-9.1 0-16.2-3.1-21.2-9.3s-7.6-15.1-7.6-26.5c0-11.5 2.5-20.4 7.6-26.7s12.1-9.5 21.2-9.5c9.4 0 16.7 3.4 21.7 10.3h.8l-.4-5-.3-4.9v-28.3h10.5v98.8h-8.6l-1.3-9.5zm-21.1 1.8c7.2 0 12.4-2 15.6-5.9 3.2-3.9 4.9-10.2 4.9-18.9v-2.2c0-9.9-1.6-16.9-4.9-21.1-3.3-4.2-8.5-6.3-15.7-6.3-6.2 0-10.9 2.4-14.2 7.2-3.3 4.8-4.9 11.6-4.9 20.3 0 8.9 1.6 15.6 4.9 20.1 3.2 4.6 8 6.8 14.3 6.8zm-883.5 117c0 14.9-3.8 26.5-11.3 35-7.5 8.5-18 12.8-31.3 12.8-13.7 0-24.2-4.2-31.6-12.5s-11.1-20.2-11.1-35.4c0-15.1 3.7-26.8 11.2-35.1 7.4-8.3 18-12.5 31.7-12.5 13.3 0 23.7 4.2 31.2 12.7 7.4 8.5 11.2 20.2 11.2 35zm-74 0c0 12.6 2.7 22.1 8 28.6 5.4 6.5 13.1 9.7 23.3 9.7 10.3 0 18-3.2 23.3-9.7 5.2-6.5 7.9-16 7.9-28.6 0-12.5-2.6-22-7.8-28.4-5.2-6.5-13-9.7-23.2-9.7-10.3 0-18.1 3.2-23.5 9.7-5.3 6.6-8 16-8 28.4zm125.5 47.8c-4.5 0-8.7-.8-12.4-2.5-3.7-1.7-6.9-4.2-9.4-7.7h-.8c.5 4.1.8 7.9.8 11.6v28.6h-10.5v-100.8h8.6l1.5 9.5h.5c2.7-3.8 5.9-6.6 9.5-8.3 3.6-1.7 7.7-2.5 12.4-2.5 9.2 0 16.3 3.2 21.4 9.5 5 6.3 7.5 15.2 7.5 26.5 0 11.4-2.5 20.3-7.6 26.6-5.4 6.4-12.5 9.5-21.5 9.5zm-1.6-63.1c-7.1 0-12.3 2-15.4 5.9s-4.8 10.2-4.9 18.8v2.3c0 9.8 1.6 16.8 4.9 21 3.3 4.2 8.5 6.3 15.7 6.3 6 0 10.7-2.4 14.1-7.3 3.4-4.9 5.1-11.6 5.1-20.1 0-8.7-1.7-15.3-5.1-20-3.4-4.6-8.2-6.9-14.4-6.9zm78.2 63.1c-10.3 0-18.4-3.1-24.3-9.4-5.9-6.3-8.9-15-8.9-26.1 0-11.2 2.8-20.1 8.3-26.7s12.9-9.9 22.2-9.9c8.7 0 15.6 2.9 20.7 8.6s7.6 13.3 7.6 22.7v6.7H1038c.2 8.2 2.3 14.4 6.2 18.6 3.9 4.2 9.4 6.3 16.5 6.3 7.5 0 14.9-1.6 22.2-4.7v9.4c-3.7 1.6-7.2 2.8-10.6 3.5-3.3.7-7.3 1-12 1zm-2.8-63.2c-5.6 0-10 1.8-13.4 5.5-3.3 3.6-5.3 8.7-5.9 15.1h36.4c0-6.6-1.5-11.7-4.4-15.3-3-3.6-7.2-5.3-12.7-5.3zm94 62v-45c0-5.7-1.3-9.9-3.9-12.7-2.6-2.8-6.6-4.2-12.1-4.2-7.3 0-12.6 2-16 5.9-3.4 3.9-5.1 10.4-5.1 19.5v36.5h-10.5v-69.6h8.6l1.7 9.5h.5c2.2-3.4 5.2-6.1 9.1-8 3.9-1.9 8.2-2.8 13-2.8 8.4 0 14.7 2 18.9 6.1 4.2 4 6.3 10.5 6.3 19.4v45.4h-10.5zm119.9-24.7c0 8.2-3 14.5-8.9 19.1s-14 6.9-24.1 6.9c-11 0-19.5-1.4-25.4-4.3v-10.4c3.8 1.6 8 2.9 12.4 3.8 4.5.9 8.9 1.4 13.3 1.4 7.2 0 12.6-1.4 16.2-4.1s5.5-6.5 5.5-11.4c0-3.2-.6-5.8-1.9-7.9-1.3-2.1-3.5-3.9-6.5-5.7-3-1.7-7.6-3.7-13.8-5.9-8.6-3.1-14.8-6.7-18.5-11-3.7-4.2-5.6-9.8-5.6-16.6 0-7.2 2.7-12.8 8.1-17.1 5.4-4.2 12.5-6.3 21.3-6.3 9.2 0 17.7 1.7 25.5 5.1l-3.4 9.4c-7.7-3.2-15.1-4.8-22.3-4.8-5.7 0-10.2 1.2-13.4 3.7-3.2 2.5-4.8 5.9-4.8 10.2 0 3.2.6 5.9 1.8 7.9s3.2 3.9 6 5.6c2.8 1.7 7.1 3.6 12.9 5.7 9.7 3.5 16.4 7.2 20.1 11.2 3.7 4 5.5 9.1 5.5 15.5zm77.4-10.2c0 11.3-2.9 20.2-8.6 26.6s-13.6 9.6-23.7 9.6c-6.2 0-11.7-1.5-16.6-4.4s-8.5-7.1-11.2-12.6-3.9-11.8-3.9-19.2c0-11.3 2.8-20.2 8.5-26.5s13.5-9.5 23.6-9.5c9.7 0 17.5 3.2 23.2 9.7 5.9 6.5 8.7 15.3 8.7 26.3zm-53 0c0 8.9 1.8 15.7 5.3 20.3 3.6 4.7 8.8 7 15.7 7s12.1-2.3 15.7-7c3.6-4.6 5.4-11.4 5.4-20.3 0-8.8-1.8-15.6-5.4-20.2-3.6-4.6-8.9-6.9-15.8-6.9s-12.1 2.3-15.6 6.8c-3.5 4.6-5.3 11.4-5.3 20.3zm81.4-34.7v45.1c0 5.7 1.3 9.9 3.9 12.7s6.6 4.2 12.1 4.2c7.3 0 12.6-2 16-6 3.4-4 5-10.5 5-19.5v-36.6h10.5v69.6h-8.7l-1.5-9.3h-.6c-2.2 3.4-5.2 6.1-9 7.9-3.8 1.8-8.2 2.7-13.1 2.7-8.5 0-14.8-2-19-6-4.2-4-6.3-10.5-6.3-19.3v-45.5h10.7zm101.6-1.3c3.1 0 5.9.3 8.3.8l-1.5 9.8c-2.9-.6-5.4-1-7.6-1-5.6 0-10.4 2.3-14.4 6.9s-6 10.3-6 17.1v37.3h-10.5v-69.6h8.7l1.2 12.9h.5c2.6-4.5 5.7-8 9.3-10.5 3.7-2.4 7.7-3.7 12-3.7zm49.2 72.1c-10.1 0-17.9-3.1-23.4-9.3s-8.3-15-8.3-26.3c0-11.6 2.8-20.6 8.4-27 5.6-6.3 13.6-9.5 24-9.5 3.3 0 6.7.4 10 1.1 3.3.7 6 1.6 7.9 2.5l-3.2 9c-2.3-.9-4.9-1.7-7.6-2.3s-5.2-.9-7.3-.9c-14.1 0-21.2 9-21.2 27 0 8.5 1.7 15.1 5.2 19.7 3.4 4.6 8.6 6.9 15.3 6.9 5.8 0 11.7-1.2 17.8-3.7v9.3c-4.7 2.3-10.6 3.5-17.6 3.5zm63.4 0c-10.3 0-18.4-3.1-24.3-9.4-5.9-6.3-8.9-15-8.9-26.1 0-11.2 2.8-20.1 8.3-26.7 5.5-6.6 12.9-9.9 22.2-9.9 8.7 0 15.6 2.9 20.7 8.6s7.6 13.3 7.6 22.7v6.7h-47.9c.2 8.2 2.3 14.4 6.2 18.6 3.9 4.2 9.4 6.3 16.5 6.3 7.5 0 14.9-1.6 22.2-4.7v9.4c-3.7 1.6-7.2 2.8-10.6 3.5s-7.3 1-12 1zm-2.8-63.2c-5.6 0-10 1.8-13.4 5.5-3.3 3.6-5.3 8.7-5.9 15.1h36.4c0-6.6-1.5-11.7-4.4-15.3-3-3.6-7.2-5.3-12.7-5.3zm54.8-30.8l1 1.4c-1.1 4.2-2.7 9.2-4.8 14.8-2.1 5.6-4.2 10.8-6.5 15.6h-7.7c3-12.1 5.1-22.7 6.5-31.8h11.5zm23.4 0l.9 1.4c-1 3.9-2.5 8.6-4.6 14.2-2 5.6-4.2 11-6.6 16.2h-7.9c1.1-4.2 2.3-9.6 3.7-16.1 1.4-6.5 2.4-11.7 2.9-15.7h11.6z"/><path class="st2" d="M1691.5 3002.8l1 1.5c-1.1 4.2-2.7 9.2-4.8 14.8-2.1 5.6-4.2 10.8-6.5 15.6h-7.9c1.1-4.4 2.4-9.8 3.8-16.3s2.3-11.7 2.9-15.6h11.5zm-12.8-47.7c0-5.7 2.5-8.6 7.6-8.6 5.2 0 7.8 2.9 7.8 8.6 0 2.8-.7 4.9-2.1 6.3-1.4 1.5-3.3 2.2-5.7 2.2-2.5 0-4.3-.7-5.6-2.2-1.4-1.4-2-3.5-2-6.3z"/><path class="st1" d="M667.8 5082.2v19.1H655c-3.5 0-6.4 2.9-6.4 6.4v12.8h19.1v19.1h-19.1v44.6h-19.1v-44.6h-12.8v-19.1h12.8v-15.9c0-12.4 10-22.3 22.3-22.3m22.4-12.8h-102c-7 0-12.8 5.7-12.8 12.8v102c0 7 5.7 12.8 12.8 12.8h102c7 0 12.8-5.7 12.8-12.8v-102c-.1-7.1-5.8-12.8-12.8-12.8zm137.4 67.3c0 12.2-3.1 21.8-9.2 28.6-6.2 6.9-14.7 10.3-25.5 10.3-6.7 0-12.6-1.6-17.8-4.7s-9.2-7.7-12-13.5c-2.8-5.9-4.2-12.8-4.2-20.6 0-12.2 3.1-21.7 9.2-28.5 6.1-6.8 14.6-10.2 25.4-10.2 10.5 0 18.8 3.5 25 10.5 6 6.7 9.1 16.2 9.1 28.1zm-57.1 0c0 9.6 1.9 16.9 5.7 21.9 3.8 5 9.5 7.5 16.9 7.5 7.4 0 13.1-2.5 16.9-7.5 3.9-5 5.8-12.3 5.8-21.9 0-9.5-1.9-16.8-5.8-21.7-3.9-4.9-9.5-7.4-17.1-7.4-7.4 0-13 2.4-16.8 7.3-3.7 4.8-5.6 12.1-5.6 21.8zm125.3 17c0 7-2.6 12.4-7.8 16.1-5.2 3.8-12.5 5.7-21.9 5.7-9.9 0-17.7-1.6-23.2-4.7v-10.5c3.6 1.8 7.5 3.3 11.6 4.3s8.1 1.6 11.9 1.6c5.9 0 10.5-.9 13.7-2.8 3.2-1.9 4.8-4.8 4.8-8.6 0-2.9-1.3-5.4-3.8-7.5-2.5-2.1-7.5-4.5-14.8-7.3-7-2.6-11.9-4.9-14.9-6.8-2.9-1.9-5.1-4.1-6.6-6.6s-2.2-5.4-2.2-8.8c0-6.1 2.5-10.9 7.5-14.5 5-3.5 11.8-5.3 20.4-5.3 8.1 0 16 1.6 23.7 4.9l-4 9.2c-7.5-3.1-14.3-4.6-20.4-4.6-5.4 0-9.4.8-12.2 2.5-2.7 1.7-4.1 4-4.1 7 0 2 .5 3.7 1.5 5.1 1 1.4 2.7 2.8 5 4 2.3 1.3 6.7 3.1 13.1 5.5 8.9 3.2 14.9 6.5 18 9.8 3.1 3.3 4.7 7.4 4.7 12.3zm79.6 20.5l-13.7-44c-.9-2.7-2.5-8.8-4.9-18.3h-.5c-1.8 8-3.4 14.1-4.8 18.5l-14.2 43.8h-13.1l-20.4-74.9h11.9c4.8 18.8 8.5 33.2 11 43s4 16.5 4.3 19.9h.5c.5-2.6 1.3-6 2.4-10.1 1.1-4.1 2.1-7.4 2.9-9.8l13.7-43H947l13.4 43c2.6 7.8 4.3 14.4 5.2 19.8h.5c.2-1.6.7-4.2 1.5-7.6.8-3.4 5.5-21.8 14.3-55.2h11.8l-20.7 74.9h-13.6zm79.4 1.4c-11.1 0-19.8-3.4-26.2-10.1-6.4-6.7-9.6-16.1-9.6-28.1 0-12.1 3-21.7 8.9-28.8s13.9-10.7 24-10.7c9.4 0 16.8 3.1 22.3 9.3 5.5 6.2 8.2 14.3 8.2 24.4v7.2h-51.6c.2 8.8 2.4 15.5 6.7 20 4.2 4.6 10.2 6.8 17.8 6.8 8.1 0 16-1.7 23.9-5.1v10.1c-4 1.7-7.8 3-11.4 3.7-3.6.9-8 1.3-13 1.3zm-3.1-68.2c-6 0-10.8 2-14.4 5.9-3.6 3.9-5.7 9.3-6.3 16.3h39.2c0-7.2-1.6-12.6-4.8-16.4-3.2-3.9-7.8-5.8-13.7-5.8zm81.6 68.2c-11.1 0-19.8-3.4-26.2-10.1-6.4-6.7-9.6-16.1-9.6-28.1 0-12.1 3-21.7 8.9-28.8s13.9-10.7 24-10.7c9.4 0 16.8 3.1 22.3 9.3 5.5 6.2 8.2 14.3 8.2 24.4v7.2h-51.6c.2 8.8 2.4 15.5 6.7 20 4.2 4.6 10.2 6.8 17.8 6.8 8.1 0 16-1.7 23.9-5.1v10.1c-4 1.7-7.8 3-11.4 3.7-3.6.9-7.9 1.3-13 1.3zm-3-68.2c-6 0-10.8 2-14.4 5.9-3.6 3.9-5.7 9.3-6.3 16.3h39.2c0-7.2-1.6-12.6-4.8-16.4-3.3-3.9-7.8-5.8-13.7-5.8zm61.1 28.4c2-2.8 4.9-6.4 9-10.9l24.2-25.6h13.5l-30.4 31.9 32.5 43h-13.7l-26.5-35.4-8.5 7.4v28h-11.2v-106.4h11.2v56.4c0 2.5-.2 6.4-.5 11.6h.4zm94 39.8c-11.1 0-19.8-3.4-26.2-10.1-6.4-6.7-9.6-16.1-9.6-28.1 0-12.1 3-21.7 8.9-28.8s13.9-10.7 24-10.7c9.4 0 16.8 3.1 22.3 9.3 5.5 6.2 8.2 14.3 8.2 24.4v7.2h-51.6c.2 8.8 2.4 15.5 6.7 20 4.2 4.6 10.2 6.8 17.8 6.8 8.1 0 16-1.7 23.9-5.1v10.1c-4 1.7-7.8 3-11.4 3.7-3.7.9-8 1.3-13 1.3zm-3.1-68.2c-6 0-10.8 2-14.4 5.9-3.6 3.9-5.7 9.3-6.3 16.3h39.2c0-7.2-1.6-12.6-4.8-16.4-3.2-3.9-7.8-5.8-13.7-5.8zm101.2 66.8v-48.5c0-6.1-1.4-10.7-4.2-13.7-2.8-3-7.1-4.5-13.1-4.5-7.8 0-13.6 2.1-17.2 6.4-3.6 4.2-5.5 11.2-5.5 21v39.3h-11.3v-74.9h9.2l1.8 10.3h.5c2.3-3.7 5.6-6.6 9.8-8.6 4.2-2 8.9-3 14-3 9 0 15.8 2.2 20.4 6.5 4.6 4.4 6.8 11.3 6.8 20.9v48.9h-11.2zm85.7-10.1h-.6c-5.2 7.6-13.1 11.4-23.5 11.4-9.8 0-17.4-3.3-22.9-10-5.4-6.7-8.2-16.2-8.2-28.6 0-12.3 2.7-21.9 8.2-28.8s13.1-10.3 22.8-10.3c10.2 0 18 3.7 23.4 11.1h.9l-.5-5.4-.3-5.3v-30.5h11.3v106.4h-9.2l-1.4-10zm-22.7 1.9c7.7 0 13.4-2.1 16.9-6.3 3.5-4.2 5.2-11 5.2-20.4v-2.4c0-10.6-1.8-18.2-5.3-22.7s-9.2-6.8-16.9-6.8c-6.7 0-11.7 2.6-15.3 7.8-3.5 5.2-5.3 12.5-5.3 21.9 0 9.6 1.8 16.8 5.3 21.7 3.4 4.8 8.6 7.2 15.4 7.2zm105.8-12.3c0 7-2.6 12.4-7.8 16.1-5.2 3.8-12.5 5.7-21.9 5.7-9.9 0-17.7-1.6-23.2-4.7v-10.5c3.6 1.8 7.5 3.3 11.6 4.3s8.1 1.6 11.9 1.6c5.9 0 10.5-.9 13.7-2.8 3.2-1.9 4.8-4.8 4.8-8.6 0-2.9-1.3-5.4-3.8-7.5-2.5-2.1-7.5-4.5-14.8-7.3-7-2.6-11.9-4.9-14.9-6.8-2.9-1.9-5.1-4.1-6.6-6.6s-2.2-5.4-2.2-8.8c0-6.1 2.5-10.9 7.5-14.5 5-3.5 11.8-5.3 20.4-5.3 8.1 0 16 1.6 23.7 4.9l-4 9.2c-7.5-3.1-14.3-4.6-20.4-4.6-5.4 0-9.4.8-12.2 2.5-2.7 1.7-4.1 4-4.1 7 0 2 .5 3.7 1.5 5.1 1 1.4 2.7 2.8 5 4 2.3 1.3 6.7 3.1 13.1 5.5 8.9 3.2 14.9 6.5 18 9.8 3.1 3.3 4.7 7.4 4.7 12.3zM659.6 4837c-.4 29.5-19.3 49.6-47.4 50.9-11.6.5-20-3.2-27.3-7.8 8.5 1.3 19.1-2 24.9-6.9-8.4-.9-13.3-5.2-15.7-12 2.4.4 5 .3 7.3-.2-7.6-2.6-13-7.3-13.3-17.1 2.1 1 4.3 1.9 7.3 2.1-5.7-3.3-9.8-15.1-5-22.8 8.4 9.2 18.6 16.8 35.2 17.8-4.2-17.9 19.5-27.6 29.3-15.6 4.2-.8 7.6-2.3 10.9-4.1-1.3 4.1-4 7.1-7.1 9.4 3.4-.4 6.6-1.3 9.2-2.6-1.7 3.3-5.3 6.4-8.3 8.9m14.6-46.7h-102c-7 0-12.8 5.7-12.8 12.8v102c0 7 5.7 12.8 12.8 12.8h102c7 0 12.8-5.7 12.8-12.8v-102c-.1-7.2-5.8-12.8-12.8-12.8zm137.4 67.2c0 12.2-3.1 21.8-9.2 28.6-6.2 6.9-14.7 10.3-25.5 10.3-6.7 0-12.6-1.6-17.8-4.7s-9.2-7.7-12-13.5c-2.8-5.9-4.2-12.8-4.2-20.6 0-12.2 3.1-21.7 9.2-28.5 6.1-6.8 14.6-10.2 25.4-10.2 10.5 0 18.8 3.5 25 10.5 6 6.8 9.1 16.2 9.1 28.1zm-57.1 0c0 9.6 1.9 16.9 5.7 21.9 3.8 5 9.5 7.5 16.9 7.5 7.4 0 13.1-2.5 16.9-7.5 3.9-5 5.8-12.3 5.8-21.9 0-9.5-1.9-16.8-5.8-21.7-3.9-4.9-9.5-7.4-17.1-7.4-7.4 0-13 2.4-16.8 7.3-3.7 4.9-5.6 12.2-5.6 21.8zm125.3 17.1c0 7-2.6 12.4-7.8 16.1-5.2 3.8-12.5 5.7-21.9 5.7-9.9 0-17.7-1.6-23.2-4.7v-10.5c3.6 1.8 7.5 3.3 11.6 4.3s8.1 1.6 11.9 1.6c5.9 0 10.5-.9 13.7-2.8 3.2-1.9 4.8-4.8 4.8-8.6 0-2.9-1.3-5.4-3.8-7.5-2.5-2.1-7.5-4.5-14.8-7.3-7-2.6-11.9-4.9-14.9-6.8-2.9-1.9-5.1-4.1-6.6-6.6s-2.2-5.4-2.2-8.8c0-6.1 2.5-10.9 7.5-14.5 5-3.5 11.8-5.3 20.4-5.3 8.1 0 16 1.6 23.7 4.9l-4 9.2c-7.5-3.1-14.3-4.6-20.4-4.6-5.4 0-9.4.8-12.2 2.5-2.7 1.7-4.1 4-4.1 7 0 2 .5 3.7 1.5 5.1 1 1.4 2.7 2.8 5 4 2.3 1.3 6.7 3.1 13.1 5.5 8.9 3.2 14.9 6.5 18 9.8 3.1 3.2 4.7 7.4 4.7 12.3zm69.4 42h-63.3v-9h63.3v9zm73-21.5l-13.7-44c-.9-2.7-2.5-8.8-4.9-18.3h-.5c-1.8 8-3.4 14.1-4.8 18.5l-14.2 43.8H971l-20.4-74.9h11.9c4.8 18.8 8.5 33.2 11 43s4 16.5 4.3 19.9h.5c.5-2.6 1.3-6 2.4-10.1 1.1-4.1 2.1-7.4 2.9-9.8l13.7-43h12.3l13.4 43c2.6 7.8 4.3 14.4 5.2 19.8h.5c.2-1.6.7-4.2 1.5-7.6.8-3.4 5.5-21.8 14.3-55.2h11.8l-20.7 74.9h-13.4zm79.3 1.3c-11.1 0-19.8-3.4-26.2-10.1-6.4-6.7-9.6-16.1-9.6-28.1 0-12.1 3-21.7 8.9-28.8s13.9-10.7 24-10.7c9.4 0 16.8 3.1 22.3 9.3 5.5 6.2 8.2 14.3 8.2 24.4v7.2h-51.6c.2 8.8 2.4 15.5 6.7 20 4.2 4.6 10.2 6.8 17.8 6.8 8.1 0 16-1.7 23.9-5.1v10.1c-4 1.7-7.8 3-11.4 3.7-3.6 1-7.9 1.3-13 1.3zm-3-68.1c-6 0-10.8 2-14.4 5.9-3.6 3.9-5.7 9.3-6.3 16.3h39.2c0-7.2-1.6-12.6-4.8-16.4-3.3-3.9-7.8-5.8-13.7-5.8zm81.6 68.1c-11.1 0-19.8-3.4-26.2-10.1-6.4-6.7-9.6-16.1-9.6-28.1 0-12.1 3-21.7 8.9-28.8s13.9-10.7 24-10.7c9.4 0 16.8 3.1 22.3 9.3 5.5 6.2 8.2 14.3 8.2 24.4v7.2H1156c.2 8.8 2.4 15.5 6.7 20 4.2 4.6 10.2 6.8 17.8 6.8 8.1 0 16-1.7 23.9-5.1v10.1c-4 1.7-7.8 3-11.4 3.7-3.5 1-7.9 1.3-12.9 1.3zm-3.1-68.1c-6 0-10.8 2-14.4 5.9-3.6 3.9-5.7 9.3-6.3 16.3h39.2c0-7.2-1.6-12.6-4.8-16.4-3.2-3.9-7.8-5.8-13.7-5.8zm61.2 28.4c2-2.8 4.9-6.4 9-10.9l24.2-25.6h13.5l-30.4 31.9 32.5 43h-13.7l-26.5-35.4-8.5 7.4v28H1227v-106.4h11.2v56.4c0 2.5-.2 6.4-.5 11.6h.5zm93.9 39.7c-11.1 0-19.8-3.4-26.2-10.1-6.4-6.7-9.6-16.1-9.6-28.1 0-12.1 3-21.7 8.9-28.8s13.9-10.7 24-10.7c9.4 0 16.8 3.1 22.3 9.3 5.5 6.2 8.2 14.3 8.2 24.4v7.2h-51.6c.2 8.8 2.4 15.5 6.7 20 4.2 4.6 10.2 6.8 17.8 6.8 8.1 0 16-1.7 23.9-5.1v10.1c-4 1.7-7.8 3-11.4 3.7-3.6 1-7.9 1.3-13 1.3zm-3.1-68.1c-6 0-10.8 2-14.4 5.9-3.6 3.9-5.7 9.3-6.3 16.3h39.2c0-7.2-1.6-12.6-4.8-16.4-3.2-3.9-7.7-5.8-13.7-5.8zm101.3 66.8v-48.5c0-6.1-1.4-10.7-4.2-13.7-2.8-3-7.1-4.5-13.1-4.5-7.8 0-13.6 2.1-17.2 6.4-3.6 4.2-5.5 11.2-5.5 21v39.3H1379v-74.9h9.2l1.8 10.3h.5c2.3-3.7 5.6-6.6 9.8-8.6 4.2-2 8.9-3 14-3 9 0 15.8 2.2 20.4 6.5 4.6 4.4 6.8 11.3 6.8 20.9v48.9h-11.2zm85.6-10.1h-.6c-5.2 7.6-13.1 11.4-23.5 11.4-9.8 0-17.4-3.3-22.9-10-5.4-6.7-8.2-16.2-8.2-28.6 0-12.3 2.7-21.9 8.2-28.8s13.1-10.3 22.8-10.3c10.2 0 18 3.7 23.4 11.1h.9l-.5-5.4-.3-5.3v-30.5h11.3V4895h-9.2l-1.4-10zm-22.7 1.9c7.7 0 13.4-2.1 16.9-6.3 3.5-4.2 5.2-11 5.2-20.4v-2.4c0-10.6-1.8-18.2-5.3-22.7s-9.2-6.8-16.9-6.8c-6.7 0-11.7 2.6-15.3 7.8-3.5 5.2-5.3 12.5-5.3 21.9 0 9.6 1.8 16.8 5.3 21.7 3.5 4.8 8.6 7.2 15.4 7.2zm105.9-12.3c0 7-2.6 12.4-7.8 16.1-5.2 3.8-12.5 5.7-21.9 5.7-9.9 0-17.7-1.6-23.2-4.7v-10.5c3.6 1.8 7.5 3.3 11.6 4.3s8.1 1.6 11.9 1.6c5.9 0 10.5-.9 13.7-2.8 3.2-1.9 4.8-4.8 4.8-8.6 0-2.9-1.3-5.4-3.8-7.5-2.5-2.1-7.5-4.5-14.8-7.3-7-2.6-11.9-4.9-14.9-6.8-2.9-1.9-5.1-4.1-6.6-6.6s-2.2-5.4-2.2-8.8c0-6.1 2.5-10.9 7.5-14.5 5-3.5 11.8-5.3 20.4-5.3 8.1 0 16 1.6 23.7 4.9l-4 9.2c-7.5-3.1-14.3-4.6-20.4-4.6-5.4 0-9.4.8-12.2 2.5-2.7 1.7-4.1 4-4.1 7 0 2 .5 3.7 1.5 5.1 1 1.4 2.7 2.8 5 4 2.3 1.3 6.7 3.1 13.1 5.5 8.9 3.2 14.9 6.5 18 9.8 3.1 3.2 4.7 7.4 4.7 12.3zM623.2 4511c-35.2 0-63.8 28.6-63.8 63.8 0 35.2 28.6 63.8 63.8 63.8s63.8-28.6 63.8-63.8c-.1-35.2-28.6-63.8-63.8-63.8m0 114.8c-28.1 0-51-22.9-51-51s22.9-51 51-51 51 22.9 51 51-22.9 51-51 51m19.1-51c0 10.6-8.6 19.1-19.1 19.1s-19.1-8.6-19.1-19.1 8.6-19.1 19.1-19.1 19.1 8.6 19.1 19.1zm169.3 3.5c0 12.2-3.1 21.8-9.2 28.6-6.2 6.9-14.7 10.3-25.5 10.3-6.7 0-12.6-1.6-17.8-4.7s-9.2-7.7-12-13.5c-2.8-5.9-4.2-12.8-4.2-20.6 0-12.2 3.1-21.7 9.2-28.5 6.1-6.8 14.6-10.2 25.4-10.2 10.5 0 18.8 3.5 25 10.5 6 6.8 9.1 16.2 9.1 28.1zm-57.1 0c0 9.6 1.9 16.9 5.7 21.9 3.8 5 9.5 7.5 16.9 7.5 7.4 0 13.1-2.5 16.9-7.5 3.9-5 5.8-12.3 5.8-21.9 0-9.5-1.9-16.8-5.8-21.7-3.9-4.9-9.5-7.4-17.1-7.4-7.4 0-13 2.4-16.8 7.3-3.7 4.9-5.6 12.1-5.6 21.8zm125.3 17.1c0 7-2.6 12.4-7.8 16.1-5.2 3.8-12.5 5.7-21.9 5.7-9.9 0-17.7-1.6-23.2-4.7V4602c3.6 1.8 7.5 3.3 11.6 4.3s8.1 1.6 11.9 1.6c5.9 0 10.5-.9 13.7-2.8 3.2-1.9 4.8-4.8 4.8-8.6 0-2.9-1.3-5.4-3.8-7.5-2.5-2.1-7.5-4.5-14.8-7.3-7-2.6-11.9-4.9-14.9-6.8-2.9-1.9-5.1-4.1-6.6-6.6s-2.2-5.4-2.2-8.8c0-6.1 2.5-10.9 7.5-14.5 5-3.5 11.8-5.3 20.4-5.3 8.1 0 16 1.6 23.7 4.9l-4 9.2c-7.5-3.1-14.3-4.6-20.4-4.6-5.4 0-9.4.8-12.2 2.5-2.7 1.7-4.1 4-4.1 7 0 2 .5 3.7 1.5 5.1 1 1.4 2.7 2.8 5 4 2.3 1.3 6.7 3.1 13.1 5.5 8.9 3.2 14.9 6.5 18 9.8 3.1 3.2 4.7 7.3 4.7 12.3zm79.6 20.4l-13.7-44c-.9-2.7-2.5-8.8-4.9-18.3h-.5c-1.8 8-3.4 14.1-4.8 18.5l-14.2 43.8h-13.1l-20.4-74.9h11.9c4.8 18.8 8.5 33.2 11 43s4 16.5 4.3 19.9h.5c.5-2.6 1.3-6 2.4-10.1 1.1-4.1 2.1-7.4 2.9-9.8l13.7-43H947l13.4 43c2.6 7.8 4.3 14.4 5.2 19.8h.5c.2-1.6.7-4.2 1.5-7.6.8-3.4 5.5-21.8 14.3-55.2h11.8l-20.7 74.9h-13.6zm79.4 1.4c-11.1 0-19.8-3.4-26.2-10.1-6.4-6.7-9.6-16.1-9.6-28.1 0-12.1 3-21.7 8.9-28.8s13.9-10.7 24-10.7c9.4 0 16.8 3.1 22.3 9.3 5.5 6.2 8.2 14.3 8.2 24.4v7.2h-51.6c.2 8.8 2.4 15.5 6.7 20 4.2 4.6 10.2 6.8 17.8 6.8 8.1 0 16-1.7 23.9-5.1v10.1c-4 1.7-7.8 3-11.4 3.7-3.6.9-8 1.3-13 1.3zm-3.1-68.2c-6 0-10.8 2-14.4 5.9-3.6 3.9-5.7 9.3-6.3 16.3h39.2c0-7.2-1.6-12.6-4.8-16.4-3.2-3.8-7.8-5.8-13.7-5.8zm81.6 68.2c-11.1 0-19.8-3.4-26.2-10.1-6.4-6.7-9.6-16.1-9.6-28.1 0-12.1 3-21.7 8.9-28.8s13.9-10.7 24-10.7c9.4 0 16.8 3.1 22.3 9.3 5.5 6.2 8.2 14.3 8.2 24.4v7.2h-51.6c.2 8.8 2.4 15.5 6.7 20 4.2 4.6 10.2 6.8 17.8 6.8 8.1 0 16-1.7 23.9-5.1v10.1c-4 1.7-7.8 3-11.4 3.7-3.6.9-7.9 1.3-13 1.3zm-3-68.2c-6 0-10.8 2-14.4 5.9-3.6 3.9-5.7 9.3-6.3 16.3h39.2c0-7.2-1.6-12.6-4.8-16.4-3.3-3.8-7.8-5.8-13.7-5.8zm61.1 28.5c2-2.8 4.9-6.4 9-10.9l24.2-25.6h13.5l-30.4 31.9 32.5 43h-13.7l-26.5-35.4-8.5 7.4v28h-11.2v-106.4h11.2v56.4c0 2.5-.2 6.4-.5 11.6h.4zm94 39.7c-11.1 0-19.8-3.4-26.2-10.1-6.4-6.7-9.6-16.1-9.6-28.1 0-12.1 3-21.7 8.9-28.8s13.9-10.7 24-10.7c9.4 0 16.8 3.1 22.3 9.3 5.5 6.2 8.2 14.3 8.2 24.4v7.2h-51.6c.2 8.8 2.4 15.5 6.7 20 4.2 4.6 10.2 6.8 17.8 6.8 8.1 0 16-1.7 23.9-5.1v10.1c-4 1.7-7.8 3-11.4 3.7-3.7.9-8 1.3-13 1.3zm-3.1-68.2c-6 0-10.8 2-14.4 5.9-3.6 3.9-5.7 9.3-6.3 16.3h39.2c0-7.2-1.6-12.6-4.8-16.4-3.2-3.8-7.8-5.8-13.7-5.8zm101.2 66.8v-48.5c0-6.1-1.4-10.7-4.2-13.7-2.8-3-7.1-4.5-13.1-4.5-7.8 0-13.6 2.1-17.2 6.4-3.6 4.2-5.5 11.2-5.5 21v39.3h-11.3v-74.9h9.2l1.8 10.3h.5c2.3-3.7 5.6-6.6 9.8-8.6 4.2-2 8.9-3 14-3 9 0 15.8 2.2 20.4 6.5 4.6 4.4 6.8 11.3 6.8 20.9v48.9h-11.2zm85.7-10h-.6c-5.2 7.6-13.1 11.4-23.5 11.4-9.8 0-17.4-3.3-22.9-10-5.4-6.7-8.2-16.2-8.2-28.6 0-12.3 2.7-21.9 8.2-28.8s13.1-10.3 22.8-10.3c10.2 0 18 3.7 23.4 11.1h.9l-.5-5.4-.3-5.3v-30.5h11.3v106.4h-9.2l-1.4-10zm-22.7 1.9c7.7 0 13.4-2.1 16.9-6.3 3.5-4.2 5.2-11 5.2-20.4v-2.4c0-10.6-1.8-18.2-5.3-22.7s-9.2-6.8-16.9-6.8c-6.7 0-11.7 2.6-15.3 7.8-3.5 5.2-5.3 12.5-5.3 21.9 0 9.6 1.8 16.8 5.3 21.7 3.4 4.8 8.6 7.2 15.4 7.2zm105.8-12.3c0 7-2.6 12.4-7.8 16.1-5.2 3.8-12.5 5.7-21.9 5.7-9.9 0-17.7-1.6-23.2-4.7V4602c3.6 1.8 7.5 3.3 11.6 4.3s8.1 1.6 11.9 1.6c5.9 0 10.5-.9 13.7-2.8 3.2-1.9 4.8-4.8 4.8-8.6 0-2.9-1.3-5.4-3.8-7.5-2.5-2.1-7.5-4.5-14.8-7.3-7-2.6-11.9-4.9-14.9-6.8-2.9-1.9-5.1-4.1-6.6-6.6s-2.2-5.4-2.2-8.8c0-6.1 2.5-10.9 7.5-14.5 5-3.5 11.8-5.3 20.4-5.3 8.1 0 16 1.6 23.7 4.9l-4 9.2c-7.5-3.1-14.3-4.6-20.4-4.6-5.4 0-9.4.8-12.2 2.5-2.7 1.7-4.1 4-4.1 7 0 2 .5 3.7 1.5 5.1 1 1.4 2.7 2.8 5 4 2.3 1.3 6.7 3.1 13.1 5.5 8.9 3.2 14.9 6.5 18 9.8 3.1 3.2 4.7 7.3 4.7 12.3zm16.8 13.2c0-3.1.7-5.4 2.1-6.9 1.4-1.6 3.4-2.4 6-2.4s4.7.8 6.2 2.4c1.5 1.6 2.2 3.9 2.2 6.9 0 3-.8 5.2-2.3 6.8s-3.6 2.4-6.2 2.4c-2.3 0-4.2-.7-5.8-2.2-1.4-1.4-2.2-3.7-2.2-7zm68.9 8.6c-10.8 0-19.2-3.3-25.2-10-5.9-6.7-8.9-16.1-8.9-28.3 0-12.5 3-22.2 9.1-29.1 6-6.8 14.6-10.3 25.8-10.3 3.6 0 7.2.4 10.8 1.2 3.6.8 6.4 1.7 8.5 2.7l-3.5 9.6c-2.5-1-5.2-1.8-8.2-2.5-3-.7-5.6-1-7.9-1-15.2 0-22.8 9.7-22.8 29.1 0 9.2 1.9 16.3 5.6 21.2 3.7 4.9 9.2 7.4 16.5 7.4 6.2 0 12.6-1.3 19.2-4v10c-5.1 2.7-11.4 4-19 4zm101.3-38.9c0 12.2-3.1 21.8-9.2 28.6-6.2 6.9-14.7 10.3-25.5 10.3-6.7 0-12.6-1.6-17.8-4.7s-9.2-7.7-12-13.5c-2.8-5.9-4.2-12.8-4.2-20.6 0-12.2 3.1-21.7 9.2-28.5 6.1-6.8 14.6-10.2 25.4-10.2 10.5 0 18.8 3.5 25 10.5 6 6.8 9.1 16.2 9.1 28.1zm-57 0c0 9.6 1.9 16.9 5.7 21.9 3.8 5 9.5 7.5 16.9 7.5 7.4 0 13.1-2.5 16.9-7.5 3.9-5 5.8-12.3 5.8-21.9 0-9.5-1.9-16.8-5.8-21.7-3.9-4.9-9.5-7.4-17.1-7.4-7.4 0-13 2.4-16.8 7.3-3.8 4.9-5.6 12.1-5.6 21.8zm172.4 37.5v-48.7c0-6-1.3-10.4-3.8-13.4-2.6-3-6.5-4.5-11.9-4.5-7.1 0-12.3 2-15.7 6.1-3.4 4.1-5.1 10.3-5.1 18.7v41.8h-11.3v-48.7c0-6-1.3-10.4-3.8-13.4-2.6-3-6.5-4.5-12-4.5-7.1 0-12.3 2.1-15.6 6.4-3.3 4.3-5 11.2-5 21v39.3h-11.3V4541h9.2l1.8 10.3h.5c2.1-3.6 5.2-6.5 9.1-8.5s8.3-3.1 13.1-3.1c11.7 0 19.4 4.2 23 12.7h.5c2.2-3.9 5.5-7 9.7-9.3 4.2-2.3 9.1-3.4 14.5-3.4 8.5 0 14.8 2.2 19 6.5 4.2 4.4 6.3 11.3 6.3 20.9v48.9h-11.2z"/><g><path class="st1" d="M462.8 1264.4c0 17.5-4.4 31.2-13.2 41.2-8.8 10-21.1 15-36.8 15-16.1 0-28.5-4.9-37.2-14.7-8.7-9.8-13.1-23.7-13.1-41.6 0-17.8 4.4-31.5 13.1-41.3 8.8-9.8 21.2-14.7 37.3-14.7 15.7 0 27.9 5 36.7 14.9 8.8 10 13.2 23.7 13.2 41.2zm-86.9 0c0 14.8 3.1 26 9.4 33.6 6.3 7.6 15.4 11.4 27.4 11.4 12.1 0 21.2-3.8 27.4-11.4 6.2-7.6 9.2-18.8 9.2-33.6 0-14.7-3.1-25.8-9.2-33.4-6.1-7.6-15.2-11.4-27.3-11.4-12.1 0-21.3 3.8-27.6 11.4-6.1 7.8-9.3 18.9-9.3 33.4zm147.4 56.2c-5.3 0-10.2-1-14.6-2.9-4.4-2-8.1-5-11.1-9.1h-.9c.6 4.8.9 9.3.9 13.6v33.6h-12.4v-118.4h10.1l1.7 11.2h.6c3.2-4.5 6.9-7.7 11.1-9.7 4.2-2 9.1-3 14.5-3 10.8 0 19.2 3.7 25.1 11.1 5.9 7.4 8.8 17.8 8.8 31.2 0 13.4-3 23.9-9 31.3-5.9 7.4-14.2 11.1-24.8 11.1zm-1.8-74.2c-8.4 0-14.4 2.3-18.1 6.9s-5.6 12-5.7 22.1v2.8c0 11.5 1.9 19.7 5.7 24.6 3.8 4.9 10 7.4 18.4 7.4 7.1 0 12.6-2.9 16.6-8.6 4-5.7 6-13.6 6-23.6 0-10.2-2-18-6-23.5-4-5.4-9.6-8.1-16.9-8.1zm91.9 74.2c-12.1 0-21.6-3.7-28.6-11-7-7.4-10.5-17.6-10.5-30.7 0-13.2 3.2-23.6 9.7-31.4 6.5-7.8 15.2-11.6 26.1-11.6 10.2 0 18.3 3.4 24.3 10.1 6 6.7 8.9 15.6 8.9 26.7v7.8H587c.2 9.6 2.7 16.9 7.3 21.9s11.1 7.5 19.4 7.5c8.8 0 17.5-1.8 26.1-5.5v11c-4.4 1.9-8.5 3.2-12.4 4.1-3.8.7-8.5 1.1-14 1.1zm-3.4-74.4c-6.6 0-11.8 2.1-15.7 6.4-3.9 4.3-6.2 10.2-6.9 17.7h42.7c0-7.8-1.7-13.8-5.2-17.9-3.4-4.1-8.4-6.2-14.9-6.2zm110.5 72.9v-52.9c0-6.7-1.5-11.6-4.5-14.9-3-3.3-7.8-4.9-14.2-4.9-8.6 0-14.8 2.3-18.8 6.9-4 4.6-6 12.3-6 22.9v42.9h-12.4v-81.7h10.1l2 11.2h.6c2.5-4 6.1-7.1 10.7-9.4 4.6-2.2 9.7-3.3 15.3-3.3 9.8 0 17.3 2.4 22.2 7.1 5 4.7 7.5 12.3 7.5 22.8v53.3h-12.5zm140.9-29c0 9.6-3.5 17.1-10.4 22.4-7 5.4-16.4 8.1-28.3 8.1-12.9 0-22.9-1.7-29.8-5v-12.2c4.5 1.9 9.3 3.4 14.6 4.5 5.3 1.1 10.5 1.6 15.7 1.6 8.5 0 14.8-1.6 19.1-4.8 4.3-3.2 6.4-7.7 6.4-13.4 0-3.8-.8-6.9-2.3-9.3-1.5-2.4-4.1-4.6-7.6-6.7-3.6-2-9-4.4-16.2-6.9-10.1-3.6-17.4-7.9-21.7-12.9-4.4-5-6.5-11.5-6.5-19.5 0-8.4 3.2-15.1 9.5-20.1 6.3-5 14.7-7.5 25.1-7.5 10.8 0 20.8 2 29.9 6l-4 11c-9-3.8-17.8-5.7-26.3-5.7-6.7 0-12 1.4-15.7 4.3-3.8 2.9-5.7 6.9-5.7 12 0 3.8.7 6.9 2.1 9.3 1.4 2.4 3.7 4.6 7 6.6s8.4 4.2 15.2 6.7c11.4 4.1 19.3 8.5 23.6 13.1 4.1 4.9 6.3 10.9 6.3 18.4zm90.9-11.9c0 13.3-3.4 23.7-10.1 31.2-6.7 7.5-16 11.2-27.8 11.2-7.3 0-13.8-1.7-19.5-5.1s-10-8.4-13.1-14.8c-3.1-6.4-4.6-13.9-4.6-22.5 0-13.3 3.3-23.7 10-31.1 6.7-7.4 15.9-11.1 27.7-11.1 11.4 0 20.5 3.8 27.3 11.4 6.8 7.5 10.1 17.8 10.1 30.8zm-62.2 0c0 10.4 2.1 18.4 6.3 23.9 4.2 5.5 10.3 8.2 18.4 8.2 8.1 0 14.3-2.7 18.5-8.2 4.2-5.4 6.3-13.4 6.3-23.9 0-10.4-2.1-18.3-6.3-23.7-4.2-5.4-10.4-8.1-18.6-8.1-8.1 0-14.2 2.7-18.3 8-4.3 5.3-6.3 13.2-6.3 23.8zm95.6-40.8v53c0 6.7 1.5 11.6 4.5 14.9 3 3.3 7.8 4.9 14.2 4.9 8.6 0 14.8-2.3 18.8-7s5.9-12.3 5.9-22.9v-43h12.4v81.7h-10.2l-1.8-11h-.7c-2.5 4-6.1 7.1-10.6 9.2-4.5 2.1-9.6 3.2-15.4 3.2-9.9 0-17.4-2.4-22.3-7.1-4.9-4.7-7.4-12.3-7.4-22.7v-53.5h12.6zm119.4-1.5c3.6 0 6.9.3 9.8.9l-1.7 11.5c-3.4-.7-6.4-1.1-8.9-1.1-6.6 0-12.3 2.7-17 8.1-4.7 5.4-7 12.1-7 20.1v43.9h-12.4v-81.7h10.2l1.4 15.1h.6c3-5.3 6.7-9.4 11-12.3 4.2-3.1 8.9-4.5 14-4.5zm57.7 84.7c-11.8 0-21-3.6-27.5-10.9-6.5-7.3-9.7-17.6-9.7-30.9 0-13.7 3.3-24.2 9.9-31.7 6.6-7.5 16-11.2 28.2-11.2 3.9 0 7.9.4 11.8 1.3 3.9.8 7 1.8 9.2 3l-3.8 10.5c-2.7-1.1-5.7-2-8.9-2.7-3.2-.7-6.1-1.1-8.6-1.1-16.6 0-24.9 10.6-24.9 31.8 0 10 2 17.8 6.1 23.1 4.1 5.4 10.1 8.1 18 8.1 6.8 0 13.8-1.5 21-4.4v11c-5.6 2.7-12.5 4.1-20.8 4.1zm74.6 0c-12.1 0-21.6-3.7-28.6-11-7-7.4-10.5-17.6-10.5-30.7 0-13.2 3.2-23.6 9.7-31.4 6.5-7.8 15.2-11.6 26.1-11.6 10.2 0 18.3 3.4 24.3 10.1 6 6.7 8.9 15.6 8.9 26.7v7.8H1211c.2 9.6 2.7 16.9 7.3 21.9s11.1 7.5 19.4 7.5c8.8 0 17.5-1.8 26.1-5.5v11c-4.4 1.9-8.5 3.2-12.4 4.1-3.8.7-8.5 1.1-14 1.1zm-3.4-74.4c-6.6 0-11.8 2.1-15.7 6.4-3.9 4.3-6.2 10.2-6.9 17.7h42.7c0-7.8-1.7-13.8-5.2-17.9-3.4-4.1-8.4-6.2-14.9-6.2zm191.3 72.9h-12.5l-22-73c-1-3.2-2.2-7.3-3.5-12.2-1.3-4.9-2-7.9-2-8.9-1.1 6.6-2.8 13.7-5.2 21.6l-21.3 72.6h-12.5l-29-109h13.4l17.2 67.3c2.4 9.4 4.1 18 5.2 25.7 1.3-9.1 3.3-18 6-26.7l19.5-66.3h13.4l20.5 66.9c2.4 7.7 4.4 16.4 6 26.1.9-7.1 2.7-15.7 5.4-25.8l17.2-67.2h13.4l-29.2 108.9zm78.9 1.5c-12.1 0-21.6-3.7-28.6-11-7-7.4-10.5-17.6-10.5-30.7 0-13.2 3.2-23.6 9.7-31.4 6.5-7.8 15.2-11.6 26.1-11.6 10.2 0 18.3 3.4 24.3 10.1 6 6.7 8.9 15.6 8.9 26.7v7.8h-56.3c.2 9.6 2.7 16.9 7.3 21.9s11.1 7.5 19.4 7.5c8.8 0 17.5-1.8 26.1-5.5v11c-4.4 1.9-8.5 3.2-12.4 4.1-3.8.7-8.5 1.1-14 1.1zm-3.4-74.4c-6.6 0-11.8 2.1-15.7 6.4-3.9 4.3-6.2 10.2-6.9 17.7h42.7c0-7.8-1.7-13.8-5.2-17.9-3.5-4.1-8.4-6.2-14.9-6.2zm89.1 74.4c-12.1 0-21.6-3.7-28.6-11-7-7.4-10.5-17.6-10.5-30.7 0-13.2 3.2-23.6 9.7-31.4 6.5-7.8 15.2-11.6 26.1-11.6 10.2 0 18.3 3.4 24.3 10.1 6 6.7 8.9 15.6 8.9 26.7v7.8h-56.3c.2 9.6 2.7 16.9 7.3 21.9s11.1 7.5 19.4 7.5c8.8 0 17.5-1.8 26.1-5.5v11c-4.4 1.9-8.5 3.2-12.4 4.1-3.8.7-8.5 1.1-14 1.1zm-3.4-74.4c-6.6 0-11.8 2.1-15.7 6.4-3.9 4.3-6.2 10.2-6.9 17.7h42.7c0-7.8-1.7-13.8-5.2-17.9-3.5-4.1-8.4-6.2-14.9-6.2zm66.7 31.1c2.1-3 5.4-7 9.8-11.9l26.4-28h14.7l-33.1 34.8 35.4 46.9h-15l-28.9-38.6-9.3 8.1v30.6H1641v-116h12.2v61.5c0 2.7-.2 7-.6 12.7h.6zm102.5 43.3c-12.1 0-21.6-3.7-28.6-11-7-7.4-10.5-17.6-10.5-30.7 0-13.2 3.2-23.6 9.7-31.4 6.5-7.8 15.2-11.6 26.1-11.6 10.2 0 18.3 3.4 24.3 10.1 6 6.7 8.9 15.6 8.9 26.7v7.8h-56.3c.2 9.6 2.7 16.9 7.3 21.9s11.1 7.5 19.4 7.5c8.8 0 17.5-1.8 26.1-5.5v11c-4.4 1.9-8.5 3.2-12.4 4.1-3.8.7-8.5 1.1-14 1.1zm-3.3-74.4c-6.6 0-11.8 2.1-15.7 6.4-3.9 4.3-6.2 10.2-6.9 17.7h42.7c0-7.8-1.7-13.8-5.2-17.9-3.5-4.1-8.5-6.2-14.9-6.2zm110.4 72.9v-52.9c0-6.7-1.5-11.6-4.5-14.9-3-3.3-7.8-4.9-14.2-4.9-8.6 0-14.8 2.3-18.8 6.9-4 4.6-6 12.3-6 22.9v42.9h-12.4v-81.7h10.1l2 11.2h.6c2.5-4 6.1-7.1 10.7-9.4 4.6-2.2 9.7-3.3 15.3-3.3 9.8 0 17.3 2.4 22.2 7.1 5 4.7 7.5 12.3 7.5 22.8v53.3h-12.5zm93.5-11h-.7c-5.7 8.3-14.3 12.5-25.7 12.5-10.7 0-19-3.7-24.9-11-5.9-7.3-8.9-17.7-8.9-31.2s3-23.9 9-31.4 14.3-11.2 24.9-11.2c11.1 0 19.6 4 25.5 12.1h1l-.5-5.9-.3-5.7V1203h12.4v116H1958l-1.7-10.9zm-24.8 2.1c8.5 0 14.6-2.3 18.4-6.9 3.8-4.6 5.7-12 5.7-22.3v-2.6c0-11.6-1.9-19.8-5.8-24.8-3.9-4.9-10-7.4-18.5-7.4-7.3 0-12.8 2.8-16.7 8.5-3.9 5.6-5.8 13.6-5.8 23.9 0 10.4 1.9 18.3 5.7 23.6 4 5.4 9.6 8 17 8zm115.5-13.4c0 7.6-2.8 13.5-8.5 17.6-5.7 4.1-13.6 6.2-23.9 6.2-10.8 0-19.3-1.7-25.4-5.1V1304c3.9 2 8.1 3.6 12.6 4.7s8.8 1.7 13 1.7c6.5 0 11.4-1 14.9-3.1s5.2-5.2 5.2-9.4c0-3.2-1.4-5.9-4.1-8.2-2.8-2.3-8.1-4.9-16.1-8-7.6-2.8-13-5.3-16.2-7.4-3.2-2.1-5.6-4.5-7.2-7.2-1.6-2.7-2.3-5.9-2.3-9.6 0-6.7 2.7-11.9 8.1-15.8 5.4-3.9 12.9-5.8 22.3-5.8 8.8 0 17.4 1.8 25.8 5.4l-4.4 10.1c-8.2-3.4-15.6-5.1-22.3-5.1-5.9 0-10.3.9-13.3 2.8-3 1.8-4.5 4.4-4.5 7.6 0 2.2.6 4.1 1.7 5.6s2.9 3 5.4 4.4c2.5 1.4 7.3 3.4 14.3 6 9.7 3.5 16.2 7.1 19.7 10.7 3.4 3.5 5.2 8 5.2 13.4z"/></g><g class="st4"><path class="st1" d="M768.3 559.2c-36-15-75-24-115.5-24s-79.5 7.5-115.5 24c-30 13.5-58.5 30-82.5 51l393-3c-24-19.5-49.5-36-79.5-48zm3 280.5c0 15-3 28.5-9 40.5-3 7.5-7.5 15-12 21l192-1.5c4.5-19.5 7.5-39 7.5-58.5l-178.5-1.5zm-409.5-76.5c-4.5 22.5-7.5 45-7.5 67.5l178.5-1.5c0-15 3-28.5 9-42 3-7.5 7.5-15 12-22.5l-192-1.5zm33 220.5c13.5 22.5 28.5 43.5 46.5 61.5l4.5 4.5 415.4-3 1.5-1.5c18-18 33-36 45-58.5l-512.9-3zm60 73.4c24 21 51 39 82.5 51 36 15 75 24 115.5 24s79.5-7.5 115.5-24c30-12 55.5-28.5 79.5-49.5l-393-1.5zm288-143.9c-1.5 1.5-3 3-4.5 6-12 9-25.5 18-39 24-15 6-30 9-46.5 9s-31.5-3-46.5-9-27-15-37.5-25.5l-6-6-198-1.5c3 13.5 7.5 27 13.5 39l13.5 27 524.9-3c4.5-7.5 7.5-15 12-24 4.5-12 9-24 12-36H742.8zm201-145.5l-192-1.5c4.5 6 9 13.5 12 21 6 13.5 9 27 9 40.5l178.5-1.5c-1.5-19.5-3-39-7.5-58.5zm-172.5 72c0 15-3 28.5-9 40.5-3 7.5-7.5 15-12 21l192-1.5c4.5-19.5 7.5-39 7.5-58.5l-178.5-1.5zm0 0c0 15-3 28.5-9 40.5-3 7.5-7.5 15-12 21l192-1.5c4.5-19.5 7.5-39 7.5-58.5l-178.5-1.5zm0 0c0 15-3 28.5-9 40.5-3 7.5-7.5 15-12 21l192-1.5c4.5-19.5 7.5-39 7.5-58.5l-178.5-1.5zm0 0c0 15-3 28.5-9 40.5-3 7.5-7.5 15-12 21l192-1.5c4.5-19.5 7.5-39 7.5-58.5l-178.5-1.5zm0 0c0 15-3 28.5-9 40.5-3 7.5-7.5 15-12 21l192-1.5c4.5-19.5 7.5-39 7.5-58.5l-178.5-1.5zm0 0c0 15-3 28.5-9 40.5-3 7.5-7.5 15-12 21l192-1.5c4.5-19.5 7.5-39 7.5-58.5l-178.5-1.5zm0 0c0 15-3 28.5-9 40.5-3 7.5-7.5 15-12 21l192-1.5c4.5-19.5 7.5-39 7.5-58.5l-178.5-1.5zm0 0c0 15-3 28.5-9 40.5-3 7.5-7.5 15-12 21l192-1.5c4.5-19.5 7.5-39 7.5-58.5l-178.5-1.5zm0 0c0 15-3 28.5-9 40.5-3 7.5-7.5 15-12 21l192-1.5c4.5-19.5 7.5-39 7.5-58.5l-178.5-1.5zm0 0c0 15-3 28.5-9 40.5-3 7.5-7.5 15-12 21l192-1.5c4.5-19.5 7.5-39 7.5-58.5l-178.5-1.5zm0 0c0 15-3 28.5-9 40.5-3 7.5-7.5 15-12 21l192-1.5c4.5-19.5 7.5-39 7.5-58.5l-178.5-1.5zm0 0c0 15-3 28.5-9 40.5-3 7.5-7.5 15-12 21l192-1.5c4.5-19.5 7.5-39 7.5-58.5l-178.5-1.5zm0 0c0 15-3 28.5-9 40.5-3 7.5-7.5 15-12 21l192-1.5c4.5-19.5 7.5-39 7.5-58.5l-178.5-1.5zm-238.5-1.5l-178.5-1.5c0 22.5 3 45 7.5 66l192-1.5c-4.5-7.5-9-13.5-12-22.5-4.5-12-7.5-25.5-9-40.5zm238.5 1.5c0 15-3 28.5-9 40.5-3 7.5-7.5 15-12 21l192-1.5c4.5-19.5 7.5-39 7.5-58.5l-178.5-1.5zm0 0c0 15-3 28.5-9 40.5-3 7.5-7.5 15-12 21l192-1.5c4.5-19.5 7.5-39 7.5-58.5l-178.5-1.5zm0 0c0 15-3 28.5-9 40.5-3 7.5-7.5 15-12 21l192-1.5c4.5-19.5 7.5-39 7.5-58.5l-178.5-1.5zm0 0c0 15-3 28.5-9 40.5-3 7.5-7.5 15-12 21l192-1.5c4.5-19.5 7.5-39 7.5-58.5l-178.5-1.5zm0 0c0 15-3 28.5-9 40.5-3 7.5-7.5 15-12 21l192-1.5c4.5-19.5 7.5-39 7.5-58.5l-178.5-1.5zm0 0c0 15-3 28.5-9 40.5-3 7.5-7.5 15-12 21l192-1.5c4.5-19.5 7.5-39 7.5-58.5l-178.5-1.5zm0 0c0 15-3 28.5-9 40.5-3 7.5-7.5 15-12 21l192-1.5c4.5-19.5 7.5-39 7.5-58.5l-178.5-1.5zm0 0c0 15-3 28.5-9 40.5-3 7.5-7.5 15-12 21l192-1.5c4.5-19.5 7.5-39 7.5-58.5l-178.5-1.5zm0 0c0 15-3 28.5-9 40.5-3 7.5-7.5 15-12 21l192-1.5c4.5-19.5 7.5-39 7.5-58.5l-178.5-1.5zm0 0c0 15-3 28.5-9 40.5-3 7.5-7.5 15-12 21l192-1.5c4.5-19.5 7.5-39 7.5-58.5l-178.5-1.5zm0 0c0 15-3 28.5-9 40.5-3 7.5-7.5 15-12 21l192-1.5c4.5-19.5 7.5-39 7.5-58.5l-178.5-1.5zm0 0c0 15-3 28.5-9 40.5-3 7.5-7.5 15-12 21l192-1.5c4.5-19.5 7.5-39 7.5-58.5l-178.5-1.5zm172.5-72l-192-1.5c4.5 6 9 13.5 12 21 6 13.5 9 27 9 40.5l178.5-1.5c-1.5-19.5-3-39-7.5-58.5zm0 0l-192-1.5c4.5 6 9 13.5 12 21 6 13.5 9 27 9 40.5l178.5-1.5c-1.5-19.5-3-39-7.5-58.5zm0 0l-192-1.5c4.5 6 9 13.5 12 21 6 13.5 9 27 9 40.5l178.5-1.5c-1.5-19.5-3-39-7.5-58.5zm0 0l-192-1.5c4.5 6 9 13.5 12 21 6 13.5 9 27 9 40.5l178.5-1.5c-1.5-19.5-3-39-7.5-58.5zm0 0l-192-1.5c4.5 6 9 13.5 12 21 6 13.5 9 27 9 40.5l178.5-1.5c-1.5-19.5-3-39-7.5-58.5zm0 0l-192-1.5c4.5 6 9 13.5 12 21 6 13.5 9 27 9 40.5l178.5-1.5c-1.5-19.5-3-39-7.5-58.5zm0 0l-192-1.5c4.5 6 9 13.5 12 21 6 13.5 9 27 9 40.5l178.5-1.5c-1.5-19.5-3-39-7.5-58.5zm0 0l-192-1.5c4.5 6 9 13.5 12 21 6 13.5 9 27 9 40.5l178.5-1.5c-1.5-19.5-3-39-7.5-58.5zm0 0l-192-1.5c4.5 6 9 13.5 12 21 6 13.5 9 27 9 40.5l178.5-1.5c-1.5-19.5-3-39-7.5-58.5zm0 0l-192-1.5c4.5 6 9 13.5 12 21 6 13.5 9 27 9 40.5l178.5-1.5c-1.5-19.5-3-39-7.5-58.5zm0 0l-192-1.5c4.5 6 9 13.5 12 21 6 13.5 9 27 9 40.5l178.5-1.5c-1.5-19.5-3-39-7.5-58.5zm0 0l-192-1.5c4.5 6 9 13.5 12 21 6 13.5 9 27 9 40.5l178.5-1.5c-1.5-19.5-3-39-7.5-58.5zm0 0l-192-1.5c4.5 6 9 13.5 12 21 6 13.5 9 27 9 40.5l178.5-1.5c-1.5-19.5-3-39-7.5-58.5zm-16.5-49.5c-3-7.5-7.5-16.5-12-24l-524.9-3-13.5 27c-6 13.5-10.5 25.5-13.5 39l198-1.5c1.5-3 4.5-4.5 6-6 10.5-10.5 24-19.5 37.5-25.5 15-6 30-9 46.5-9s33 3 48 9 27 15 37.5 25.5c1.5 1.5 3 3 4.5 6l198-1.5c-3.1-12-7.6-24-12.1-36zm16.5 49.5l-192-1.5c4.5 6 9 13.5 12 21 6 13.5 9 27 9 40.5l178.5-1.5c-1.5-19.5-3-39-7.5-58.5zm0 0l-192-1.5c4.5 6 9 13.5 12 21 6 13.5 9 27 9 40.5l178.5-1.5c-1.5-19.5-3-39-7.5-58.5zm0 0l-192-1.5c4.5 6 9 13.5 12 21 6 13.5 9 27 9 40.5l178.5-1.5c-1.5-19.5-3-39-7.5-58.5zm0 0l-192-1.5c4.5 6 9 13.5 12 21 6 13.5 9 27 9 40.5l178.5-1.5c-1.5-19.5-3-39-7.5-58.5zm0 0l-192-1.5c4.5 6 9 13.5 12 21 6 13.5 9 27 9 40.5l178.5-1.5c-1.5-19.5-3-39-7.5-58.5zm0 0l-192-1.5c4.5 6 9 13.5 12 21 6 13.5 9 27 9 40.5l178.5-1.5c-1.5-19.5-3-39-7.5-58.5zm0 0l-192-1.5c4.5 6 9 13.5 12 21 6 13.5 9 27 9 40.5l178.5-1.5c-1.5-19.5-3-39-7.5-58.5zm0 0l-192-1.5c4.5 6 9 13.5 12 21 6 13.5 9 27 9 40.5l178.5-1.5c-1.5-19.5-3-39-7.5-58.5zm0 0l-192-1.5c4.5 6 9 13.5 12 21 6 13.5 9 27 9 40.5l178.5-1.5c-1.5-19.5-3-39-7.5-58.5zm0 0l-192-1.5c4.5 6 9 13.5 12 21 6 13.5 9 27 9 40.5l178.5-1.5c-1.5-19.5-3-39-7.5-58.5zm0 0l-192-1.5c4.5 6 9 13.5 12 21 6 13.5 9 27 9 40.5l178.5-1.5c-1.5-19.5-3-39-7.5-58.5zm0 0l-192-1.5c4.5 6 9 13.5 12 21 6 13.5 9 27 9 40.5l178.5-1.5c-1.5-19.5-3-39-7.5-58.5zm0 0l-192-1.5c4.5 6 9 13.5 12 21 6 13.5 9 27 9 40.5l178.5-1.5c-1.5-19.5-3-39-7.5-58.5zm-172.5 72c0 15-3 28.5-9 40.5-3 7.5-7.5 15-12 21l192-1.5c4.5-19.5 7.5-39 7.5-58.5l-178.5-1.5zm91.5-217.5l-416.9-4.5-4.5 4.5c-18 18-34.5 39-46.5 61.5l514.4-3c-13.5-21-28.5-40.5-46.5-58.5zm-91.5 217.5c0 15-3 28.5-9 40.5-3 7.5-7.5 15-12 21l192-1.5c4.5-19.5 7.5-39 7.5-58.5l-178.5-1.5zm478.4-45c-10.5-9-19.5-18-28.5-25.5l-243-1.5c7.5 16.5 16.5 31.5 28.5 45 4.5 4.5 7.5 9 12 13.5l259.5-1.5c-9-10.5-18-21-28.5-30zM981.3 622.2c-1.5 1.5-3 4.5-3 7.5-7.5 15-12 33-13.5 52.5l301.5-1.5v-55.5c-.1 0-285-3-285-3zm247.4-81c-10.5-1.5-22.5-3-36-4.5s-27-1.5-40.5-1.5c-25.5 0-51 3-73.5 10.5s-43.5 18-60 31.5c-10.5 9-19.5 18-28.5 30l276-1.5v-58.5c-12-3-24-4.5-37.5-6zm-265.4 153v4.5c0 19.5 3 37.5 9 54l228-1.5c-6-4.5-10.5-9-15-13.5-7.5-7.5-12-12-12-16.5s1.5-9 4.5-12 7.5-4.5 12-6 9-1.5 15-1.5h13.5c6 0 12 0 18 1.5 6 0 10.5 1.5 15 1.5 6 0 10.5 1.5 15 1.5v-9l-303-3zm1.5 292.5v58.5l339-1.5c3-7.5 7.5-13.5 9-21 4.5-10.5 7.5-21 9-33l-357-3zm356.9-70.5l-202.5-1.5c4.5 6 6 10.5 6 16.5 0 19.5-13.5 28.5-39 28.5-15 0-30-1.5-43.5-3-15-1.5-27-4.5-39-7.5-13.5-3-27-6-39-9v33l360-3v-18c1.5-12 0-24-3-36zm-237-33c7.5 6 13.5 10.5 19.5 16.5l213-1.5c-1.5-3-3-7.5-3-10.5-6-16.5-13.5-31.5-22.5-45l-258-1.5c4.5 3 7.5 7.5 12 10.5 13.5 12 25.5 21 39 31.5zm-119.9 176.9v51c13.5 4.5 28.5 7.5 45 10.5 13.5 3 30 4.5 49.5 7.5 18 1.5 39 3 60 3 36 0 66-4.5 93-13.5 25.5-9 48-22.5 64.5-39 6-6 10.5-10.5 15-18l-327-1.5zm511.4-511.4h-193.5l18 55.5h193.5l-18-55.5zm359.9 78l-16.5 48 193.5-1.5 15-45-192-1.5zm-79.4 0l-175.5-1.5-16.5 51 208.5-1.5-16.5-48zm-400.5 144l18 54 592.4-4.5 15-46.5-625.4-3zm328.5 220.5l16.5 49.5 192-1.5 15-46.5-223.5-1.5zm24 73.4l18 52.5h141l16.5-51-175.5-1.5zm-304.5-148.4l18 52.5 240-1.5 7.5-22.5 7.5 22.5 240-1.5 15-46.5-528-3zm48 146.9l18 54h141l18-52.5-177-1.5zm-24-73.4l18 52.5 190.5-1.5 16.5-51h-225zm-48-147l18 54 542.9-3 15-46.5-575.9-4.5zm431.9-142.5l-16.5 48-16.5-48-223.5-1.5-15 49.5-16.5-49.5-193.5-1.5 18 54 640.4-4.5 15-46.5h-191.9zm-311.9-75l-193.5-1.5 18 54 192-1.5-16.5-51zm362.9-76.5l-18 52.5 193.5-1.5 16.5-51h-192zm-131.9 0h-124.5l-18 54 160.5-1.5-18-52.5z"/></g></svg>