<svg xmlns="http://www.w3.org/2000/svg" viewBox="0 0 71.95 36.62"><title>powered by OSW - vertical mono</title><g id="Layer_2" data-name="Layer 2"><g id="Layer_1-2" data-name="Layer 1"><path d="M4.13,6.38A1.5,1.5,0,0,1,2.88,5.8H2.81q.06.57.06.66V8.29H1.64V1.77h1l.17.59h.06a1.43,1.43,0,0,1,1.28-.67,1.47,1.47,0,0,1,1.25.62A2.86,2.86,0,0,1,5.87,4a3.39,3.39,0,0,1-.21,1.26A1.76,1.76,0,0,1,5,6.1,1.55,1.55,0,0,1,4.13,6.38Zm-.36-3.7A.78.78,0,0,0,3.09,3a1.61,1.61,0,0,0-.22.93V4a1.91,1.91,0,0,0,.22,1,.77.77,0,0,0,.69.32q.83,0,.83-1.37a2,2,0,0,0-.2-1A.7.7,0,0,0,3.76,2.67Z"/><path d="M10.94,4a2.43,2.43,0,0,1-.58,1.73,2.11,2.11,0,0,1-1.62.62,2.27,2.27,0,0,1-1.15-.29,1.9,1.9,0,0,1-.76-.82A2.75,2.75,0,0,1,6.56,4,2.42,2.42,0,0,1,7.14,2.3a2.13,2.13,0,0,1,1.63-.62A2.28,2.28,0,0,1,9.91,2a1.89,1.89,0,0,1,.76.81A2.73,2.73,0,0,1,10.94,4ZM7.82,4A1.9,1.9,0,0,0,8,5a.79.79,0,0,0,.72.34A.78.78,0,0,0,9.47,5a1.93,1.93,0,0,0,.22-1,1.87,1.87,0,0,0-.22-1,.79.79,0,0,0-.72-.34A.79.79,0,0,0,8,3,1.87,1.87,0,0,0,7.82,4Z"/><path d="M15.5,6.3l-.35-1.58-.47-2h0L13.83,6.3H12.51L11.22,1.77h1.23l.52,2q.13.54.25,1.48h0a8.31,8.31,0,0,1,.14-1l.06-.34L14,1.77h1.36l.53,2.17L16,4.2q0,.17.07.37t.06.38q0,.19,0,.3h0q0-.29.13-.8t.13-.69l.54-2h1.21L16.85,6.3Z"/><path d="M20.75,6.38A2.33,2.33,0,0,1,19,5.77a2.28,2.28,0,0,1-.62-1.71A2.51,2.51,0,0,1,19,2.31a2,2,0,0,1,1.57-.62,2,2,0,0,1,1.49.55,2.07,2.07,0,0,1,.53,1.51v.6H19.68a1.19,1.19,0,0,0,.31.82,1.1,1.1,0,0,0,.82.3,3.39,3.39,0,0,0,.77-.08,3.88,3.88,0,0,0,.76-.27v1a2.9,2.9,0,0,1-.69.24A4.36,4.36,0,0,1,20.75,6.38Zm-.17-3.81a.78.78,0,0,0-.61.25,1.15,1.15,0,0,0-.25.71h1.73a1,1,0,0,0-.24-.71A.81.81,0,0,0,20.57,2.57Z"/><path d="M26,1.69a2,2,0,0,1,.42,0l-.09,1.16a1.41,1.41,0,0,0-.36,0,1.31,1.31,0,0,0-.92.3,1.1,1.1,0,0,0-.33.85V6.3H23.52V1.77h.93l.18.76h.06a1.7,1.7,0,0,1,.57-.61A1.4,1.4,0,0,1,26,1.69Z"/><path d="M29.21,6.38a2.33,2.33,0,0,1-1.71-.6,2.28,2.28,0,0,1-.62-1.71,2.51,2.51,0,0,1,.57-1.76A2,2,0,0,1,29,1.69a2,2,0,0,1,1.49.55,2.07,2.07,0,0,1,.53,1.51v.6H28.14a1.19,1.19,0,0,0,.31.82,1.1,1.1,0,0,0,.82.3A3.39,3.39,0,0,0,30,5.37a3.88,3.88,0,0,0,.76-.27v1a2.9,2.9,0,0,1-.69.24A4.36,4.36,0,0,1,29.21,6.38ZM29,2.57a.78.78,0,0,0-.61.25,1.15,1.15,0,0,0-.25.71H29.9a1,1,0,0,0-.24-.71A.81.81,0,0,0,29,2.57Z"/><path d="M33.47,6.38a1.47,1.47,0,0,1-1.25-.62A2.85,2.85,0,0,1,31.76,4a2.85,2.85,0,0,1,.46-1.73,1.5,1.5,0,0,1,1.28-.62,1.48,1.48,0,0,1,1.3.66h0a5,5,0,0,1-.09-.9V0H36V6.3H35l-.24-.59h-.05A1.41,1.41,0,0,1,33.47,6.38Zm.43-1a.84.84,0,0,0,.69-.28,1.6,1.6,0,0,0,.24-.93V4a1.85,1.85,0,0,0-.22-1,.83.83,0,0,0-.73-.32.72.72,0,0,0-.64.35,1.87,1.87,0,0,0-.23,1,1.77,1.77,0,0,0,.23,1A.75.75,0,0,0,33.9,5.39Z"/><path d="M41.95,1.69a1.46,1.46,0,0,1,1.25.63A2.87,2.87,0,0,1,43.66,4a2.82,2.82,0,0,1-.47,1.74,1.63,1.63,0,0,1-2.52,0h-.08l-.21.5h-.94V0h1.23V1.46q0,.28,0,.89h0A1.43,1.43,0,0,1,41.95,1.69Zm-.4,1a.78.78,0,0,0-.67.28,1.61,1.61,0,0,0-.22.93V4a1.91,1.91,0,0,0,.22,1,.77.77,0,0,0,.69.32.69.69,0,0,0,.6-.35,1.89,1.89,0,0,0,.22-1,1.8,1.8,0,0,0-.23-1A.71.71,0,0,0,41.55,2.67Z"/><path d="M43.85,1.77H45.2l.85,2.54a3.54,3.54,0,0,1,.15.78h0a3.46,3.46,0,0,1,.17-.78l.84-2.54h1.32l-1.91,5.1a2.21,2.21,0,0,1-.75,1.06,1.89,1.89,0,0,1-1.14.35,2.86,2.86,0,0,1-.63-.07v-1a2.11,2.11,0,0,0,.49.05.88.88,0,0,0,.57-.2,1.3,1.3,0,0,0,.38-.6l.07-.22Z"/><path d="M17.51,12.4a12.63,12.63,0,0,0-4.88-1,12.34,12.34,0,0,0-4.88,1,9.38,9.38,0,0,0-2.13,1.2l13.91-.16A6.82,6.82,0,0,0,17.51,12.4Zm.13,11.67a5.49,5.49,0,0,1-.4,1.92,4.31,4.31,0,0,1-.56,1l8.23-.08a10.13,10.13,0,0,0,.32-2.72C25.26,24.15,17.67,24.07,17.64,24.07Zm0,0a5.49,5.49,0,0,1-.4,1.92,4.31,4.31,0,0,1-.56,1l8.23-.08a10.13,10.13,0,0,0,.32-2.72C25.26,24.15,17.67,24.07,17.64,24.07Zm7.14-3.28-8.39-.08a7.92,7.92,0,0,1,.88,1.36,4.73,4.73,0,0,1,.37,1.52l7.62-.08A14.85,14.85,0,0,0,24.78,20.79Zm-7.14,3.28a5.49,5.49,0,0,1-.4,1.92,4.31,4.31,0,0,1-.56,1l8.23-.08a10.13,10.13,0,0,0,.32-2.72C25.26,24.15,17.67,24.07,17.64,24.07Zm7.14-3.28-8.39-.08a7.92,7.92,0,0,1,.88,1.36,4.73,4.73,0,0,1,.37,1.52l7.62-.08A14.85,14.85,0,0,0,24.78,20.79Zm-7.14,3.28a5.49,5.49,0,0,1-.4,1.92,4.31,4.31,0,0,1-.56,1l8.23-.08a10.13,10.13,0,0,0,.32-2.72C25.26,24.15,17.67,24.07,17.64,24.07Zm7.14-3.28-8.39-.08a7.92,7.92,0,0,1,.88,1.36,4.73,4.73,0,0,1,.37,1.52l7.62-.08A14.85,14.85,0,0,0,24.78,20.79Zm-7.14,3.28a5.49,5.49,0,0,1-.4,1.92,4.31,4.31,0,0,1-.56,1l8.23-.08a10.13,10.13,0,0,0,.32-2.72C25.26,24.15,17.67,24.07,17.64,24.07Zm7.14-3.28-8.39-.08a7.92,7.92,0,0,1,.88,1.36,4.73,4.73,0,0,1,.37,1.52l7.62-.08A14.85,14.85,0,0,0,24.78,20.79Zm-7.14,3.28a5.49,5.49,0,0,1-.4,1.92,4.31,4.31,0,0,1-.56,1l8.23-.08a10.13,10.13,0,0,0,.32-2.72C25.26,24.15,17.67,24.07,17.64,24.07Zm7.14-3.28-8.39-.08a7.92,7.92,0,0,1,.88,1.36,4.73,4.73,0,0,1,.37,1.52l7.62-.08A14.85,14.85,0,0,0,24.78,20.79Zm-7.14,3.28a5.49,5.49,0,0,1-.4,1.92,4.31,4.31,0,0,1-.56,1l8.23-.08a10.13,10.13,0,0,0,.32-2.72C25.26,24.15,17.67,24.07,17.64,24.07Zm7.14-3.28-8.39-.08a7.92,7.92,0,0,1,.88,1.36,4.73,4.73,0,0,1,.37,1.52l7.62-.08A14.85,14.85,0,0,0,24.78,20.79Zm-7.14,3.28a5.49,5.49,0,0,1-.4,1.92,4.31,4.31,0,0,1-.56,1l8.23-.08a10.13,10.13,0,0,0,.32-2.72C25.26,24.15,17.67,24.07,17.64,24.07Zm7.14-3.28-8.39-.08a7.92,7.92,0,0,1,.88,1.36,4.73,4.73,0,0,1,.37,1.52l7.62-.08A14.85,14.85,0,0,0,24.78,20.79Zm-7.14,3.28a5.49,5.49,0,0,1-.4,1.92,4.31,4.31,0,0,1-.56,1l8.23-.08a10.13,10.13,0,0,0,.32-2.72C25.26,24.15,17.67,24.07,17.64,24.07Zm7.14-3.28-8.39-.08a7.92,7.92,0,0,1,.88,1.36,4.73,4.73,0,0,1,.37,1.52l7.62-.08A14.85,14.85,0,0,0,24.78,20.79Zm-7.14,3.28a5.49,5.49,0,0,1-.4,1.92,4.31,4.31,0,0,1-.56,1l8.23-.08a10.13,10.13,0,0,0,.32-2.72C25.26,24.15,17.67,24.07,17.64,24.07Zm7.14-3.28-8.39-.08a7.92,7.92,0,0,1,.88,1.36,4.73,4.73,0,0,1,.37,1.52l7.62-.08A14.85,14.85,0,0,0,24.78,20.79Zm-7.14,3.28a5.49,5.49,0,0,1-.4,1.92,4.31,4.31,0,0,1-.56,1l8.23-.08a10.13,10.13,0,0,0,.32-2.72C25.26,24.15,17.67,24.07,17.64,24.07Zm7.14-3.28-8.39-.08a7.92,7.92,0,0,1,.88,1.36,4.73,4.73,0,0,1,.37,1.52l7.62-.08A14.85,14.85,0,0,0,24.78,20.79Zm-7.14,3.28a5.49,5.49,0,0,1-.4,1.92,4.31,4.31,0,0,1-.56,1l8.23-.08a10.13,10.13,0,0,0,.32-2.72C25.26,24.15,17.67,24.07,17.64,24.07Zm7.14-3.28-8.39-.08a7.92,7.92,0,0,1,.88,1.36,4.73,4.73,0,0,1,.37,1.52l7.62-.08A14.85,14.85,0,0,0,24.78,20.79Zm-8.47,6.63-.16.16a5.74,5.74,0,0,1-1.6,1.12,5.2,5.2,0,0,1-4,0A4.46,4.46,0,0,1,9,27.59l-.24-.24L.4,27.19a13.78,13.78,0,0,0,.53,1.68,16.92,16.92,0,0,0,.88,1.68l21.74-.32c.24-.4.48-.88.72-1.36s.32-.88.48-1.36ZM8,26a5.56,5.56,0,0,1-.4-2v-.08L0,23.83V24a14,14,0,0,0,.4,3.2l8.23-.08A8,8,0,0,1,8,26Zm16.23-6.87a12,12,0,0,0-.88-1.76L2.08,17.06A16.09,16.09,0,0,0,1,19c-.16.48-.32,1-.48,1.36l8.63-.08a4.54,4.54,0,0,1,1.44-1,5.2,5.2,0,0,1,4,0,5,5,0,0,1,1.36.91l8.63-.08A2.26,2.26,0,0,0,24.22,19.11ZM0,23.83l7.59-.08A4.3,4.3,0,0,1,8,22.07a4.54,4.54,0,0,1,1-1.44L.48,20.47A11.36,11.36,0,0,0,0,23.83Zm24.78-3-8.39-.08a7.92,7.92,0,0,1,.88,1.36,4.73,4.73,0,0,1,.37,1.52l7.62-.08A14.85,14.85,0,0,0,24.78,20.79Zm-7.14,3.28a5.49,5.49,0,0,1-.4,1.92,4.31,4.31,0,0,1-.56,1l8.23-.08a10.13,10.13,0,0,0,.32-2.72C25.26,24.15,17.67,24.07,17.64,24.07Zm7.14-3.28-8.39-.08a7.92,7.92,0,0,1,.88,1.36,4.73,4.73,0,0,1,.37,1.52l7.62-.08A14.85,14.85,0,0,0,24.78,20.79Zm-7.14,3.28a5.49,5.49,0,0,1-.4,1.92,4.31,4.31,0,0,1-.56,1l8.23-.08a10.13,10.13,0,0,0,.32-2.72C25.26,24.15,17.67,24.07,17.64,24.07Zm7.14-3.28-8.39-.08a7.92,7.92,0,0,1,.88,1.36,4.73,4.73,0,0,1,.37,1.52l7.62-.08A14.85,14.85,0,0,0,24.78,20.79Zm-7.14,3.28a5.49,5.49,0,0,1-.4,1.92,4.31,4.31,0,0,1-.56,1l8.23-.08a10.13,10.13,0,0,0,.32-2.72C25.26,24.15,17.67,24.07,17.64,24.07Zm7.14-3.28-8.39-.08a7.92,7.92,0,0,1,.88,1.36,4.73,4.73,0,0,1,.37,1.52l7.62-.08A14.85,14.85,0,0,0,24.78,20.79Zm-7.14,3.28a5.49,5.49,0,0,1-.4,1.92,4.31,4.31,0,0,1-.56,1l8.23-.08a10.13,10.13,0,0,0,.32-2.72C25.26,24.15,17.67,24.07,17.64,24.07Zm7.14-3.28-8.39-.08a7.92,7.92,0,0,1,.88,1.36,4.73,4.73,0,0,1,.37,1.52l7.62-.08A14.85,14.85,0,0,0,24.78,20.79Zm-7.14,3.28a5.49,5.49,0,0,1-.4,1.92,4.31,4.31,0,0,1-.56,1l8.23-.08a10.13,10.13,0,0,0,.32-2.72C25.26,24.15,17.67,24.07,17.64,24.07Zm7.14-3.28-8.39-.08a7.92,7.92,0,0,1,.88,1.36,4.73,4.73,0,0,1,.37,1.52l7.62-.08A14.85,14.85,0,0,0,24.78,20.79Zm-7.14,3.28a5.49,5.49,0,0,1-.4,1.92,4.31,4.31,0,0,1-.56,1l8.23-.08a10.13,10.13,0,0,0,.32-2.72C25.26,24.15,17.67,24.07,17.64,24.07Zm7.14-3.28-8.39-.08a7.92,7.92,0,0,1,.88,1.36,4.73,4.73,0,0,1,.37,1.52l7.62-.08A14.85,14.85,0,0,0,24.78,20.79Zm-7.14,3.28a5.49,5.49,0,0,1-.4,1.92,4.31,4.31,0,0,1-.56,1l8.23-.08a10.13,10.13,0,0,0,.32-2.72C25.26,24.15,17.67,24.07,17.64,24.07Zm7.14-3.28-8.39-.08a7.92,7.92,0,0,1,.88,1.36,4.73,4.73,0,0,1,.37,1.52l7.62-.08A14.85,14.85,0,0,0,24.78,20.79Zm-7.14,3.28a5.49,5.49,0,0,1-.4,1.92,4.31,4.31,0,0,1-.56,1l8.23-.08a10.13,10.13,0,0,0,.32-2.72C25.26,24.15,17.67,24.07,17.64,24.07Zm7.14-3.28-8.39-.08a7.92,7.92,0,0,1,.88,1.36,4.73,4.73,0,0,1,.37,1.52l7.62-.08A14.85,14.85,0,0,0,24.78,20.79Zm-7.14,3.28a5.49,5.49,0,0,1-.4,1.92,4.31,4.31,0,0,1-.56,1l8.23-.08a10.13,10.13,0,0,0,.32-2.72C25.26,24.15,17.67,24.07,17.64,24.07Zm7.14-3.28-8.39-.08a7.92,7.92,0,0,1,.88,1.36,4.73,4.73,0,0,1,.37,1.52l7.62-.08A14.85,14.85,0,0,0,24.78,20.79Zm-7.14,3.28a5.49,5.49,0,0,1-.4,1.92,4.31,4.31,0,0,1-.56,1l8.23-.08a10.13,10.13,0,0,0,.32-2.72C25.26,24.15,17.67,24.07,17.64,24.07Zm7.14-3.28-8.39-.08a7.92,7.92,0,0,1,.88,1.36,4.73,4.73,0,0,1,.37,1.52l7.62-.08A14.85,14.85,0,0,0,24.78,20.79Zm-7.14,3.28a5.49,5.49,0,0,1-.4,1.92,4.31,4.31,0,0,1-.56,1l8.23-.08a10.13,10.13,0,0,0,.32-2.72C25.26,24.15,17.67,24.07,17.64,24.07ZM5,34.06a15.18,15.18,0,0,0,2.72,1.6,12.63,12.63,0,0,0,4.88,1,12.34,12.34,0,0,0,4.88-1,11.66,11.66,0,0,0,2.4-1.36ZM1.92,30.62a12.32,12.32,0,0,0,1.84,2.32,6.45,6.45,0,0,0,1.09,1l15.83-.24a8,8,0,0,0,.88-.8,12.52,12.52,0,0,0,1.6-2C23.18,30.94,1.92,30.62,1.92,30.62Zm22.86-9.83-8.39-.08a7.92,7.92,0,0,1,.88,1.36,4.73,4.73,0,0,1,.37,1.52l7.62-.08A14.85,14.85,0,0,0,24.78,20.79Zm-7.14,3.28a5.49,5.49,0,0,1-.4,1.92,4.31,4.31,0,0,1-.56,1l8.23-.08a10.13,10.13,0,0,0,.32-2.72C25.26,24.15,17.67,24.07,17.64,24.07Zm7.14-3.28-8.39-.08a7.92,7.92,0,0,1,.88,1.36,4.73,4.73,0,0,1,.37,1.52l7.62-.08A14.85,14.85,0,0,0,24.78,20.79Zm-7.14,3.28a5.49,5.49,0,0,1-.4,1.92,4.31,4.31,0,0,1-.56,1l8.23-.08a10.13,10.13,0,0,0,.32-2.72C25.26,24.15,17.67,24.07,17.64,24.07Zm3.84-9a16,16,0,0,0-1.28-1.12L5.28,13.68A13,13,0,0,0,3.68,15,12.72,12.72,0,0,0,2.08,17l20.78-.32A11.19,11.19,0,0,0,21.5,15Zm-3.84,9a5.49,5.49,0,0,1-.4,1.92,4.31,4.31,0,0,1-.56,1l8.23-.08a10.13,10.13,0,0,0,.32-2.72c0-.08-7.57-.16-7.57-.16ZM25.79,34.3v1.41a11.53,11.53,0,0,0,1.92.4,14.25,14.25,0,0,0,2.08.32,24.37,24.37,0,0,0,2.56.16,11.58,11.58,0,0,0,3.92-.53,7.25,7.25,0,0,0,2.56-1.52Zm14.82-8.07a10.74,10.74,0,0,0-1-1.92l-11-.16a4.57,4.57,0,0,0,.64.56A11.69,11.69,0,0,0,30.94,26a8.49,8.49,0,0,1,.88.72l9-.08A2.05,2.05,0,0,1,40.61,26.23ZM25.82,17.35c0,.32-.08.56-.08.88A12,12,0,0,0,25.9,20L35,19.83a.83.83,0,0,1-.4-.64.48.48,0,0,1,.24-.48.69.69,0,0,1,.48-.24,1.56,1.56,0,0,1,.64-.08h1.28c.24,0,.48.08.64.08s.48.08.64.08v-1ZM37,11.6c-.48-.08-1-.08-1.52-.16a12.37,12.37,0,0,0-1.76-.08,9.8,9.8,0,0,0-3.12.48,8.53,8.53,0,0,0-2.56,1.28.3.3,0,0,0-.16.16l10.63-.16V11.84L37,11.6ZM27.18,14a6.93,6.93,0,0,0-.8,1.28,6.8,6.8,0,0,0-.48,1.36l12.63-.16V14.16Zm10.71,8.31c-.56-.48-1.12-1-1.52-1.36l-.08-.08-10.07-.08a.28.28,0,0,0,.08.16A7.62,7.62,0,0,0,27.58,23l.32.32,11-.16A9.59,9.59,0,0,1,37.89,22.31ZM41,27.75l-8.45-.08a1,1,0,0,1,.08.48q0,1.2-1.68,1.2a13.55,13.55,0,0,1-1.84-.08,9,9,0,0,1-1.68-.32,12.79,12.79,0,0,1-1.68-.4v1.68L41,30c0-.32.08-.64.08-1A3,3,0,0,0,41,27.75Zm-15.19,3.2v2.64l14-.16A6.05,6.05,0,0,0,40.56,32c.08-.24.16-.56.24-.8C40.85,31.1,25.82,30.94,25.82,30.94Zm32.46-19H53l-.32,1,5.92-.08Zm-9,5.76-8.15-.08.72,2.24L50,19.75l-.72-2.08Zm9.75-3.2L52.2,14.4l-.64,2,8.15-.08c-.08-.08-.64-1.84-.64-1.84Zm1.12,3.36-9.11-.16-.64,2,10.39-.16-.64-1.68ZM42.29,21,43,23.27l25.34-.32.45-1.52C68.8,21.35,42.29,21,42.29,21ZM56.52,31.34l.64,1.84L65,33.1l.53-1.6Zm-12-3.52L45.25,30l10-.16.4-1.12L56,29.85l10.07-.16.48-1.6C66.59,28.15,44.53,27.83,44.53,27.83Zm13.08,7L58,36h6l.4-1.12Zm-10.85-.13L47.24,36h6l.4-1.28Zm-1.12-3.44.72,2.16,7.75-.08.64-1.92Zm-2.24-6.79.72,2.13,23.08-.32.48-1.52ZM63.79,11.94l-.24.8,8.15-.08.24-.72Zm-1.36,4.24,8.15-.08.48-1.44L63,14.56Zm-.53,1.76-.53,1.68,8.15-.08L70,18ZM48.2,14.32,40,14.24l.72,2.32,8.07-.08A17,17,0,0,0,48.2,14.32Zm-.8-2.4H39.25l.4,1.12L47.72,13l-.32-1Z"/></g></g></svg>