<svg xmlns="http://www.w3.org/2000/svg" viewBox="0 0 232.04 118.11"><defs><style>.cls-1{fill:#003da5;}</style></defs><title>powered by OSW - vertical blue</title><g id="Layer_2" data-name="Layer 2"><g id="Layer_1-2" data-name="Layer 1"><path class="cls-1" d="M13.31,20.57a4.84,4.84,0,0,1-4-1.87H9.07q.21,1.83.21,2.11v5.91h-4v-21H8.53l.56,1.89h.18a4.6,4.6,0,0,1,4.14-2.17,4.73,4.73,0,0,1,4,2A9.24,9.24,0,0,1,18.92,13,11,11,0,0,1,18.23,17a5.69,5.69,0,0,1-2,2.62A5,5,0,0,1,13.31,20.57ZM12.13,8.63A2.51,2.51,0,0,0,10,9.53a5.21,5.21,0,0,0-.7,3V13a6.15,6.15,0,0,0,.7,3.37,2.49,2.49,0,0,0,2.21,1q2.67,0,2.68-4.41A6.3,6.3,0,0,0,14.2,9.7,2.25,2.25,0,0,0,12.13,8.63Z"/><path class="cls-1" d="M35.3,13a7.84,7.84,0,0,1-1.88,5.57,6.81,6.81,0,0,1-5.23,2,7.32,7.32,0,0,1-3.71-.92A6.12,6.12,0,0,1,22,17a8.88,8.88,0,0,1-.86-4A7.8,7.8,0,0,1,23,7.42a6.85,6.85,0,0,1,5.25-2A7.36,7.36,0,0,1,32,6.35,6.1,6.1,0,0,1,34.44,9,8.8,8.8,0,0,1,35.3,13ZM25.21,13a6.12,6.12,0,0,0,.71,3.28,2.54,2.54,0,0,0,2.32,1.11,2.5,2.5,0,0,0,2.29-1.1,6.21,6.21,0,0,0,.7-3.28,6,6,0,0,0-.7-3.25,2.55,2.55,0,0,0-2.31-1.08,2.54,2.54,0,0,0-2.3,1.08A6,6,0,0,0,25.21,13Z"/><path class="cls-1" d="M50,20.3l-1.12-5.1L47.37,8.76h-.09L44.61,20.3H40.33L36.18,5.72h4l1.68,6.46q.4,1.74.82,4.79h.08a26.81,26.81,0,0,1,.46-3.14l.21-1.11,1.8-7h4.38l1.71,7q.05.29.16.85t.22,1.19q.1.63.19,1.24t.1,1H52q.12-.94.42-2.58t.43-2.21l1.75-6.46h3.9L54.33,20.3Z"/><path class="cls-1" d="M66.92,20.57a7.53,7.53,0,0,1-5.51-1.94,7.36,7.36,0,0,1-2-5.51,8.1,8.1,0,0,1,1.83-5.67,6.53,6.53,0,0,1,5.07-2A6.43,6.43,0,0,1,71.14,7.2a6.66,6.66,0,0,1,1.72,4.87V14H63.46a3.83,3.83,0,0,0,1,2.65,3.54,3.54,0,0,0,2.64,1,10.93,10.93,0,0,0,2.49-.27A12.51,12.51,0,0,0,72,16.45v3.08a9.35,9.35,0,0,1-2.23.78A14,14,0,0,1,66.92,20.57ZM66.35,8.27a2.52,2.52,0,0,0-2,.8,3.71,3.71,0,0,0-.82,2.28h5.58a3.32,3.32,0,0,0-.77-2.28A2.61,2.61,0,0,0,66.35,8.27Z"/><path class="cls-1" d="M84,5.44a6.43,6.43,0,0,1,1.34.12l-.3,3.73a4.56,4.56,0,0,0-1.17-.13,4.22,4.22,0,0,0-3,1,3.54,3.54,0,0,0-1.06,2.74V20.3h-4V5.72h3l.59,2.45h.2a5.49,5.49,0,0,1,1.83-2A4.52,4.52,0,0,1,84,5.44Z"/><path class="cls-1" d="M94.22,20.57a7.53,7.53,0,0,1-5.51-1.94,7.36,7.36,0,0,1-2-5.51,8.1,8.1,0,0,1,1.83-5.67,6.53,6.53,0,0,1,5.07-2A6.43,6.43,0,0,1,98.44,7.2a6.66,6.66,0,0,1,1.72,4.87V14H90.76a3.83,3.83,0,0,0,1,2.65,3.54,3.54,0,0,0,2.64,1,10.93,10.93,0,0,0,2.49-.27,12.51,12.51,0,0,0,2.45-.87v3.08a9.35,9.35,0,0,1-2.23.78A14,14,0,0,1,94.22,20.57ZM93.65,8.27a2.52,2.52,0,0,0-2,.8,3.71,3.71,0,0,0-.82,2.28h5.58a3.32,3.32,0,0,0-.77-2.28A2.61,2.61,0,0,0,93.65,8.27Z"/><path class="cls-1" d="M107.94,20.57a4.74,4.74,0,0,1-4-2A9.18,9.18,0,0,1,102.43,13a9.19,9.19,0,0,1,1.49-5.59,4.85,4.85,0,0,1,4.12-2,4.76,4.76,0,0,1,4.2,2.14h.13a16.22,16.22,0,0,1-.3-2.91V0h4V20.3H113l-.77-1.89h-.17A4.56,4.56,0,0,1,107.94,20.57Zm1.4-3.17a2.7,2.7,0,0,0,2.24-.89,5.16,5.16,0,0,0,.78-3v-.43a6,6,0,0,0-.72-3.37,2.69,2.69,0,0,0-2.36-1,2.34,2.34,0,0,0-2.07,1.13,6,6,0,0,0-.74,3.28,5.71,5.71,0,0,0,.74,3.23A2.43,2.43,0,0,0,109.34,17.39Z"/><path class="cls-1" d="M135.29,5.44a4.72,4.72,0,0,1,4,2A9.25,9.25,0,0,1,140.8,13a9.09,9.09,0,0,1-1.51,5.6,5.26,5.26,0,0,1-8.14.12h-.27l-.67,1.61h-3V0h4V4.72q0,.9-.16,2.88h.16A4.6,4.6,0,0,1,135.29,5.44ZM134,8.63a2.51,2.51,0,0,0-2.15.91,5.21,5.21,0,0,0-.7,3V13a6.15,6.15,0,0,0,.7,3.37,2.49,2.49,0,0,0,2.21,1,2.22,2.22,0,0,0,2-1.13,6.11,6.11,0,0,0,.72-3.28A5.79,5.79,0,0,0,136,9.7,2.29,2.29,0,0,0,134,8.63Z"/><path class="cls-1" d="M141.43,5.72h4.36l2.75,8.21a11.43,11.43,0,0,1,.48,2.53h.08a11.15,11.15,0,0,1,.56-2.53l2.7-8.21h4.27l-6.17,16.45A7.13,7.13,0,0,1,148,25.59a6.11,6.11,0,0,1-3.67,1.14,9.24,9.24,0,0,1-2-.22V23.34a6.81,6.81,0,0,0,1.57.17,2.83,2.83,0,0,0,1.85-.65,4.19,4.19,0,0,0,1.23-2l.23-.72Z"/><path class="cls-1" d="M56.46,40a40.74,40.74,0,0,0-15.73-3.09A39.81,39.81,0,0,0,25,40a30.27,30.27,0,0,0-6.88,3.87L63,43.34A22,22,0,0,0,56.46,40Zm.43,37.64a17.72,17.72,0,0,1-1.29,6.19,13.89,13.89,0,0,1-1.8,3.35l26.56-.26a32.66,32.66,0,0,0,1-8.77C81.47,77.88,57,77.63,56.89,77.63Zm0,0a17.72,17.72,0,0,1-1.29,6.19,13.89,13.89,0,0,1-1.8,3.35l26.56-.26a32.66,32.66,0,0,0,1-8.77C81.47,77.88,57,77.63,56.89,77.63Zm23-10.57L52.86,66.8a25.54,25.54,0,0,1,2.84,4.38,15.26,15.26,0,0,1,1.2,4.9l24.58-.26A47.89,47.89,0,0,0,79.93,67.06Zm-23,10.57a17.72,17.72,0,0,1-1.29,6.19,13.89,13.89,0,0,1-1.8,3.35l26.56-.26a32.66,32.66,0,0,0,1-8.77C81.47,77.88,57,77.63,56.89,77.63Zm23-10.57L52.86,66.8a25.54,25.54,0,0,1,2.84,4.38,15.26,15.26,0,0,1,1.2,4.9l24.58-.26A47.89,47.89,0,0,0,79.93,67.06Zm-23,10.57a17.72,17.72,0,0,1-1.29,6.19,13.89,13.89,0,0,1-1.8,3.35l26.56-.26a32.66,32.66,0,0,0,1-8.77C81.47,77.88,57,77.63,56.89,77.63Zm23-10.57L52.86,66.8a25.54,25.54,0,0,1,2.84,4.38,15.26,15.26,0,0,1,1.2,4.9l24.58-.26A47.89,47.89,0,0,0,79.93,67.06Zm-23,10.57a17.72,17.72,0,0,1-1.29,6.19,13.89,13.89,0,0,1-1.8,3.35l26.56-.26a32.66,32.66,0,0,0,1-8.77C81.47,77.88,57,77.63,56.89,77.63Zm23-10.57L52.86,66.8a25.54,25.54,0,0,1,2.84,4.38,15.26,15.26,0,0,1,1.2,4.9l24.58-.26A47.89,47.89,0,0,0,79.93,67.06Zm-23,10.57a17.72,17.72,0,0,1-1.29,6.19,13.89,13.89,0,0,1-1.8,3.35l26.56-.26a32.66,32.66,0,0,0,1-8.77C81.47,77.88,57,77.63,56.89,77.63Zm23-10.57L52.86,66.8a25.54,25.54,0,0,1,2.84,4.38,15.26,15.26,0,0,1,1.2,4.9l24.58-.26A47.89,47.89,0,0,0,79.93,67.06Zm-23,10.57a17.72,17.72,0,0,1-1.29,6.19,13.89,13.89,0,0,1-1.8,3.35l26.56-.26a32.66,32.66,0,0,0,1-8.77C81.47,77.88,57,77.63,56.89,77.63Zm23-10.57L52.86,66.8a25.54,25.54,0,0,1,2.84,4.38,15.26,15.26,0,0,1,1.2,4.9l24.58-.26A47.89,47.89,0,0,0,79.93,67.06Zm-23,10.57a17.72,17.72,0,0,1-1.29,6.19,13.89,13.89,0,0,1-1.8,3.35l26.56-.26a32.66,32.66,0,0,0,1-8.77C81.47,77.88,57,77.63,56.89,77.63Zm23-10.57L52.86,66.8a25.54,25.54,0,0,1,2.84,4.38,15.26,15.26,0,0,1,1.2,4.9l24.58-.26A47.89,47.89,0,0,0,79.93,67.06Zm-23,10.57a17.72,17.72,0,0,1-1.29,6.19,13.89,13.89,0,0,1-1.8,3.35l26.56-.26a32.66,32.66,0,0,0,1-8.77C81.47,77.88,57,77.63,56.89,77.63Zm23-10.57L52.86,66.8a25.54,25.54,0,0,1,2.84,4.38,15.26,15.26,0,0,1,1.2,4.9l24.58-.26A47.89,47.89,0,0,0,79.93,67.06Zm-23,10.57a17.72,17.72,0,0,1-1.29,6.19,13.89,13.89,0,0,1-1.8,3.35l26.56-.26a32.66,32.66,0,0,0,1-8.77C81.47,77.88,57,77.63,56.89,77.63Zm23-10.57L52.86,66.8a25.54,25.54,0,0,1,2.84,4.38,15.26,15.26,0,0,1,1.2,4.9l24.58-.26A47.89,47.89,0,0,0,79.93,67.06Zm-23,10.57a17.72,17.72,0,0,1-1.29,6.19,13.89,13.89,0,0,1-1.8,3.35l26.56-.26a32.66,32.66,0,0,0,1-8.77C81.47,77.88,57,77.63,56.89,77.63Zm23-10.57L52.86,66.8a25.54,25.54,0,0,1,2.84,4.38,15.26,15.26,0,0,1,1.2,4.9l24.58-.26A47.89,47.89,0,0,0,79.93,67.06Zm-23,10.57a17.72,17.72,0,0,1-1.29,6.19,13.89,13.89,0,0,1-1.8,3.35l26.56-.26a32.66,32.66,0,0,0,1-8.77C81.47,77.88,57,77.63,56.89,77.63Zm23-10.57L52.86,66.8a25.54,25.54,0,0,1,2.84,4.38,15.26,15.26,0,0,1,1.2,4.9l24.58-.26A47.89,47.89,0,0,0,79.93,67.06ZM52.6,88.46l-.52.52a18.51,18.51,0,0,1-5.16,3.61,16.76,16.76,0,0,1-12.89,0A14.39,14.39,0,0,1,28.88,89l-.77-.77L1.29,87.68A44.43,44.43,0,0,0,3,93.1a54.56,54.56,0,0,0,2.84,5.41l70.13-1c.77-1.29,1.55-2.84,2.32-4.38.52-1.55,1-2.84,1.55-4.38ZM25.78,83.81a17.94,17.94,0,0,1-1.29-6.45v-.26L0,76.85v.52A45.19,45.19,0,0,0,1.29,87.68l26.56-.26A25.78,25.78,0,0,1,25.78,83.81ZM78.12,61.64A38.81,38.81,0,0,0,75.29,56L6.7,55A51.89,51.89,0,0,0,3.1,61.38c-.52,1.55-1,3.09-1.55,4.38l27.85-.26A14.63,14.63,0,0,1,34,62.42a16.76,16.76,0,0,1,12.89,0,16,16,0,0,1,4.38,2.92l27.85-.26A7.31,7.31,0,0,0,78.12,61.64ZM0,76.85l24.49-.26a13.85,13.85,0,0,1,1.29-5.41,14.63,14.63,0,0,1,3.09-4.64L1.55,66A36.65,36.65,0,0,0,0,76.85Zm79.93-9.8L52.86,66.8a25.54,25.54,0,0,1,2.84,4.38,15.26,15.26,0,0,1,1.2,4.9l24.58-.26A47.89,47.89,0,0,0,79.93,67.06Zm-23,10.57a17.72,17.72,0,0,1-1.29,6.19,13.89,13.89,0,0,1-1.8,3.35l26.56-.26a32.66,32.66,0,0,0,1-8.77C81.47,77.88,57,77.63,56.89,77.63Zm23-10.57L52.86,66.8a25.54,25.54,0,0,1,2.84,4.38,15.26,15.26,0,0,1,1.2,4.9l24.58-.26A47.89,47.89,0,0,0,79.93,67.06Zm-23,10.57a17.72,17.72,0,0,1-1.29,6.19,13.89,13.89,0,0,1-1.8,3.35l26.56-.26a32.66,32.66,0,0,0,1-8.77C81.47,77.88,57,77.63,56.89,77.63Zm23-10.57L52.86,66.8a25.54,25.54,0,0,1,2.84,4.38,15.26,15.26,0,0,1,1.2,4.9l24.58-.26A47.89,47.89,0,0,0,79.93,67.06Zm-23,10.57a17.72,17.72,0,0,1-1.29,6.19,13.89,13.89,0,0,1-1.8,3.35l26.56-.26a32.66,32.66,0,0,0,1-8.77C81.47,77.88,57,77.63,56.89,77.63Zm23-10.57L52.86,66.8a25.54,25.54,0,0,1,2.84,4.38,15.26,15.26,0,0,1,1.2,4.9l24.58-.26A47.89,47.89,0,0,0,79.93,67.06Zm-23,10.57a17.72,17.72,0,0,1-1.29,6.19,13.89,13.89,0,0,1-1.8,3.35l26.56-.26a32.66,32.66,0,0,0,1-8.77C81.47,77.88,57,77.63,56.89,77.63Zm23-10.57L52.86,66.8a25.54,25.54,0,0,1,2.84,4.38,15.26,15.26,0,0,1,1.2,4.9l24.58-.26A47.89,47.89,0,0,0,79.93,67.06Zm-23,10.57a17.72,17.72,0,0,1-1.29,6.19,13.89,13.89,0,0,1-1.8,3.35l26.56-.26a32.66,32.66,0,0,0,1-8.77C81.47,77.88,57,77.63,56.89,77.63Zm23-10.57L52.86,66.8a25.54,25.54,0,0,1,2.84,4.38,15.26,15.26,0,0,1,1.2,4.9l24.58-.26A47.89,47.89,0,0,0,79.93,67.06Zm-23,10.57a17.72,17.72,0,0,1-1.29,6.19,13.89,13.89,0,0,1-1.8,3.35l26.56-.26a32.66,32.66,0,0,0,1-8.77C81.47,77.88,57,77.63,56.89,77.63Zm23-10.57L52.86,66.8a25.54,25.54,0,0,1,2.84,4.38,15.26,15.26,0,0,1,1.2,4.9l24.58-.26A47.89,47.89,0,0,0,79.93,67.06Zm-23,10.57a17.72,17.72,0,0,1-1.29,6.19,13.89,13.89,0,0,1-1.8,3.35l26.56-.26a32.66,32.66,0,0,0,1-8.77C81.47,77.88,57,77.63,56.89,77.63Zm23-10.57L52.86,66.8a25.54,25.54,0,0,1,2.84,4.38,15.26,15.26,0,0,1,1.2,4.9l24.58-.26A47.89,47.89,0,0,0,79.93,67.06Zm-23,10.57a17.72,17.72,0,0,1-1.29,6.19,13.89,13.89,0,0,1-1.8,3.35l26.56-.26a32.66,32.66,0,0,0,1-8.77C81.47,77.88,57,77.63,56.89,77.63Zm23-10.57L52.86,66.8a25.54,25.54,0,0,1,2.84,4.38,15.26,15.26,0,0,1,1.2,4.9l24.58-.26A47.89,47.89,0,0,0,79.93,67.06Zm-23,10.57a17.72,17.72,0,0,1-1.29,6.19,13.89,13.89,0,0,1-1.8,3.35l26.56-.26a32.66,32.66,0,0,0,1-8.77C81.47,77.88,57,77.63,56.89,77.63Zm23-10.57L52.86,66.8a25.54,25.54,0,0,1,2.84,4.38,15.26,15.26,0,0,1,1.2,4.9l24.58-.26A47.89,47.89,0,0,0,79.93,67.06Zm-23,10.57a17.72,17.72,0,0,1-1.29,6.19,13.89,13.89,0,0,1-1.8,3.35l26.56-.26a32.66,32.66,0,0,0,1-8.77C81.47,77.88,57,77.63,56.89,77.63Zm23-10.57L52.86,66.8a25.54,25.54,0,0,1,2.84,4.38,15.26,15.26,0,0,1,1.2,4.9l24.58-.26A47.89,47.89,0,0,0,79.93,67.06Zm-23,10.57a17.72,17.72,0,0,1-1.29,6.19,13.89,13.89,0,0,1-1.8,3.35l26.56-.26a32.66,32.66,0,0,0,1-8.77C81.47,77.88,57,77.63,56.89,77.63ZM16.24,109.85A49,49,0,0,0,25,115a40.74,40.74,0,0,0,15.73,3.09A39.81,39.81,0,0,0,56.46,115a37.61,37.61,0,0,0,7.73-4.38ZM6.19,98.77a39.74,39.74,0,0,0,5.93,7.48,20.8,20.8,0,0,0,3.52,3.09l51-.77A25.68,25.68,0,0,0,69.53,106a40.39,40.39,0,0,0,5.16-6.45C74.77,99.8,6.19,98.77,6.19,98.77ZM79.93,67.06,52.86,66.8a25.54,25.54,0,0,1,2.84,4.38,15.26,15.26,0,0,1,1.2,4.9l24.58-.26A47.89,47.89,0,0,0,79.93,67.06Zm-23,10.57a17.72,17.72,0,0,1-1.29,6.19,13.89,13.89,0,0,1-1.8,3.35l26.56-.26a32.66,32.66,0,0,0,1-8.77C81.47,77.88,57,77.63,56.89,77.63Zm23-10.57L52.86,66.8a25.54,25.54,0,0,1,2.84,4.38,15.26,15.26,0,0,1,1.2,4.9l24.58-.26A47.89,47.89,0,0,0,79.93,67.06Zm-23,10.57a17.72,17.72,0,0,1-1.29,6.19,13.89,13.89,0,0,1-1.8,3.35l26.56-.26a32.66,32.66,0,0,0,1-8.77C81.47,77.88,57,77.63,56.89,77.63ZM69.27,48.49a51.56,51.56,0,0,0-4.13-3.61L17,44.11a42.08,42.08,0,0,0-5.16,4.38A41,41,0,0,0,6.7,54.68l67-1a36.1,36.1,0,0,0-4.38-5.16ZM56.89,77.63a17.72,17.72,0,0,1-1.29,6.19,13.89,13.89,0,0,1-1.8,3.35l26.56-.26a32.66,32.66,0,0,0,1-8.77c.09-.26-24.41-.52-24.41-.52Zm26.3,33v4.55a37.2,37.2,0,0,0,6.19,1.29,46,46,0,0,0,6.7,1,78.59,78.59,0,0,0,8.25.52A37.35,37.35,0,0,0,117,116.3a23.38,23.38,0,0,0,8.25-4.9Zm47.78-26a34.63,34.63,0,0,0-3.09-6.19L92.3,77.88a14.73,14.73,0,0,0,2.06,1.8,37.69,37.69,0,0,0,5.41,4.13,27.4,27.4,0,0,1,2.84,2.32l28.88-.26A6.62,6.62,0,0,1,131,84.59ZM83.28,56c0,1-.26,1.8-.26,2.84a38.62,38.62,0,0,0,.52,5.67L112.93,64a2.68,2.68,0,0,1-1.29-2.06,1.56,1.56,0,0,1,.77-1.55,2.23,2.23,0,0,1,1.55-.77,5,5,0,0,1,2.06-.26h4.13c.77,0,1.55.26,2.06.26s1.55.26,2.06.26V56.74Zm36.1-18.56c-1.55-.26-3.09-.26-4.9-.52a39.91,39.91,0,0,0-5.67-.26,31.61,31.61,0,0,0-10.06,1.55A27.5,27.5,0,0,0,90.5,42.3a1,1,0,0,0-.52.52l34.29-.52V38.18c-1.55-.26-3.09-.52-4.9-.77ZM87.66,45.14a22.34,22.34,0,0,0-2.58,4.13,21.93,21.93,0,0,0-1.55,4.38l40.74-.52V45.66ZM122.21,72c-1.8-1.55-3.61-3.09-4.9-4.38l-.26-.26-32.49-.26a.89.89,0,0,0,.26.52A24.58,24.58,0,0,0,89,74.27l1,1,35.32-.52A30.94,30.94,0,0,1,122.21,72Zm10.06,17.53L105,89.23a3.27,3.27,0,0,1,.26,1.55q0,3.87-5.41,3.87a43.69,43.69,0,0,1-5.93-.26,28.91,28.91,0,0,1-5.41-1,41.25,41.25,0,0,1-5.41-1.29v5.41l49-.77c0-1,.26-2.06.26-3.35A9.76,9.76,0,0,0,132.27,89.49Zm-49,10.31v8.51l45.12-.52a19.53,19.53,0,0,0,2.41-4.64c.26-.77.52-1.8.77-2.58C131.75,100.32,83.28,99.8,83.28,99.8ZM188,38.44h-17l-1,3.09L189,41.27ZM159.08,57l-26.3-.26L135.1,64l26.3-.26L159.08,57Zm31.45-10.31-22.17-.26-2.06,6.45,26.3-.26c-.26-.26-2.06-5.93-2.06-5.93Zm3.61,10.83L164.75,57l-2.06,6.45,33.52-.52-2.06-5.41ZM136.39,67.83,138.71,75l81.73-1,1.46-4.9C221.9,68.86,136.39,67.83,136.39,67.83Zm45.89,33.26,2.06,5.93,25.27-.26,1.72-5.16ZM143.61,89.74l2.32,7,32.23-.52,1.29-3.61,1.2,3.7,32.49-.52,1.55-5.16C214.77,90.78,143.61,89.74,143.61,89.74Zm42.2,22.43L187.1,116h19.34l1.29-3.61Zm-35-.43,1.55,4.38h19.34L173,112Zm-3.61-11.09,2.32,7,25-.26,2.06-6.19ZM140,78.74l2.32,6.88,74.43-1,1.55-4.9Zm65.75-40.22L205,41.1l26.3-.26.77-2.32Zm-4.38,13.66,26.3-.26,1.55-4.64-26-.34Zm-1.72,5.67-1.72,5.41,26.3-.26,1.55-4.9ZM155.47,46.17l-26.3-.26,2.32,7.48,26-.26A54.88,54.88,0,0,0,155.47,46.17Zm-2.58-7.73h-26.3L127.88,42l26-.26-1-3.35Z"/></g></g></svg>