<svg xmlns="http://www.w3.org/2000/svg" viewBox="0 0 418.55 53.29"><defs><style>.cls-1{fill:#0068ff;}</style></defs><title>powered by OSW - darkBg</title><g id="Layer_2" data-name="Layer 2"><g id="Layer_1-2" data-name="Layer 1"><path class="cls-1" d="M13.22,39.51a8,8,0,0,1-6.65-3.08H6.22q.34,3,.34,3.49v9.75H0V15H5.34l.93,3.12h.3a7.6,7.6,0,0,1,6.83-3.57,7.81,7.81,0,0,1,6.67,3.29q2.41,3.29,2.41,9.15a18.07,18.07,0,0,1-1.13,6.7A9.39,9.39,0,0,1,18.13,38,8.25,8.25,0,0,1,13.22,39.51Zm-1.94-19.7a4.15,4.15,0,0,0-3.55,1.5q-1.12,1.5-1.16,4.94V27q0,3.87,1.15,5.55a4.11,4.11,0,0,0,3.65,1.68q4.41,0,4.41-7.28a10.4,10.4,0,0,0-1.09-5.33A3.71,3.71,0,0,0,11.28,19.81Z"/><path class="cls-1" d="M49.51,27q0,5.88-3.1,9.19t-8.63,3.32A12.08,12.08,0,0,1,31.66,38a10.11,10.11,0,0,1-4.07-4.36A14.66,14.66,0,0,1,26.17,27q0-5.9,3.08-9.17t8.66-3.27A12.15,12.15,0,0,1,44,16.06a10.06,10.06,0,0,1,4.07,4.33A14.52,14.52,0,0,1,49.51,27ZM32.86,27A10.1,10.1,0,0,0,34,32.41a4.2,4.2,0,0,0,3.82,1.83,4.13,4.13,0,0,0,3.78-1.82A10.25,10.25,0,0,0,42.79,27a10,10,0,0,0-1.16-5.36,4.21,4.21,0,0,0-3.81-1.79A4.19,4.19,0,0,0,34,21.63,10,10,0,0,0,32.86,27Z"/><path class="cls-1" d="M73.77,39.08l-1.85-8.42L69.42,20h-.15L64.88,39.08H57.82L51,15h6.55l2.78,10.66q.67,2.86,1.36,7.9h.13a44.23,44.23,0,0,1,.75-5.19l.34-1.83,3-11.54h7.23L75.9,26.55q.08.47.27,1.4t.36,2q.17,1,.31,2t.16,1.6h.13q.19-1.55.69-4.25t.71-3.65L81.41,15h6.44L80.92,39.08Z"/><path class="cls-1" d="M101.68,39.51q-5.81,0-9.09-3.21t-3.27-9.09q0-6,3-9.36a10.77,10.77,0,0,1,8.37-3.31q5.1,0,7.95,2.91t2.84,8v3.19H96a6.32,6.32,0,0,0,1.66,4.37A5.84,5.84,0,0,0,102,34.62a18,18,0,0,0,4.11-.45,20.64,20.64,0,0,0,4-1.44v5.08a15.44,15.44,0,0,1-3.68,1.28A23.18,23.18,0,0,1,101.68,39.51Zm-.93-20.28a4.16,4.16,0,0,0-3.27,1.32,6.12,6.12,0,0,0-1.36,3.76h9.22a5.48,5.48,0,0,0-1.27-3.76A4.3,4.3,0,0,0,100.75,19.23Z"/><path class="cls-1" d="M129.89,14.56a10.6,10.6,0,0,1,2.22.19l-.5,6.16a7.52,7.52,0,0,0-1.94-.22,7,7,0,0,0-4.9,1.62A5.83,5.83,0,0,0,123,26.83V39.08h-6.57V15h5l1,4h.32a9.05,9.05,0,0,1,3-3.26A7.46,7.46,0,0,1,129.89,14.56Z"/><path class="cls-1" d="M146.73,39.51q-5.81,0-9.09-3.21t-3.27-9.09q0-6,3-9.36a10.77,10.77,0,0,1,8.37-3.31q5.1,0,7.95,2.91t2.84,8v3.19H141a6.32,6.32,0,0,0,1.66,4.37A5.84,5.84,0,0,0,147,34.62a18,18,0,0,0,4.11-.45,20.64,20.64,0,0,0,4-1.44v5.08a15.44,15.44,0,0,1-3.68,1.28A23.18,23.18,0,0,1,146.73,39.51Zm-.93-20.28a4.16,4.16,0,0,0-3.27,1.32,6.12,6.12,0,0,0-1.36,3.76h9.22a5.48,5.48,0,0,0-1.27-3.76A4.3,4.3,0,0,0,145.8,19.23Z"/><path class="cls-1" d="M169.38,39.51a7.82,7.82,0,0,1-6.66-3.29q-2.42-3.29-2.42-9.13t2.47-9.23a8,8,0,0,1,6.79-3.31,7.85,7.85,0,0,1,6.93,3.53h.22a26.76,26.76,0,0,1-.5-4.8V5.58h6.59v33.5h-5L176.48,36h-.28A7.52,7.52,0,0,1,169.38,39.51Zm2.3-5.23a4.45,4.45,0,0,0,3.69-1.46q1.17-1.46,1.28-5v-.71q0-3.88-1.2-5.56a4.44,4.44,0,0,0-3.89-1.68,3.86,3.86,0,0,0-3.41,1.86,9.94,9.94,0,0,0-1.22,5.42,9.43,9.43,0,0,0,1.23,5.33A4,4,0,0,0,171.68,34.28Z"/><path class="cls-1" d="M214.51,14.56a7.79,7.79,0,0,1,6.67,3.33q2.41,3.33,2.41,9.12,0,6-2.49,9.24a8.68,8.68,0,0,1-13.42.19h-.45l-1.1,2.65h-5V5.58h6.57v7.79q0,1.49-.26,4.76h.26A7.6,7.6,0,0,1,214.51,14.56Zm-2.11,5.25a4.15,4.15,0,0,0-3.55,1.5q-1.12,1.5-1.16,4.94V27q0,3.87,1.15,5.55a4.11,4.11,0,0,0,3.65,1.68,3.66,3.66,0,0,0,3.22-1.86,10.08,10.08,0,0,0,1.2-5.42,9.55,9.55,0,0,0-1.21-5.33A3.78,3.78,0,0,0,212.4,19.81Z"/><path class="cls-1" d="M224.63,15h7.19l4.54,13.54a18.86,18.86,0,0,1,.8,4.18h.13a18.4,18.4,0,0,1,.93-4.18L242.67,15h7L239.53,42.16a11.76,11.76,0,0,1-4,5.64,10.08,10.08,0,0,1-6.06,1.87,15.24,15.24,0,0,1-3.34-.37V44.1a11.24,11.24,0,0,0,2.58.28,4.67,4.67,0,0,0,3-1.07,6.92,6.92,0,0,0,2-3.22l.39-1.18Z"/><path class="cls-1" d="M303.73,2.2a26.64,26.64,0,0,0-10.29-2,26,26,0,0,0-10.29,2,19.8,19.8,0,0,0-4.5,2.53L308,4.39A14.39,14.39,0,0,0,303.73,2.2ZM304,26.82a11.59,11.59,0,0,1-.84,4A9.08,9.08,0,0,1,302,33.06l17.37-.17a21.36,21.36,0,0,0,.67-5.73C320.08,27,304.06,26.82,304,26.82Zm0,0a11.59,11.59,0,0,1-.84,4A9.08,9.08,0,0,1,302,33.06l17.37-.17a21.36,21.36,0,0,0,.67-5.73C320.08,27,304.06,26.82,304,26.82Zm15.06-6.91-17.7-.17a16.7,16.7,0,0,1,1.85,2.87,10,10,0,0,1,.79,3.2l16.07-.17A31.32,31.32,0,0,0,319.07,19.91ZM304,26.82a11.59,11.59,0,0,1-.84,4A9.08,9.08,0,0,1,302,33.06l17.37-.17a21.36,21.36,0,0,0,.67-5.73C320.08,27,304.06,26.82,304,26.82Zm15.06-6.91-17.7-.17a16.7,16.7,0,0,1,1.85,2.87,10,10,0,0,1,.79,3.2l16.07-.17A31.32,31.32,0,0,0,319.07,19.91ZM304,26.82a11.59,11.59,0,0,1-.84,4A9.08,9.08,0,0,1,302,33.06l17.37-.17a21.36,21.36,0,0,0,.67-5.73C320.08,27,304.06,26.82,304,26.82Zm15.06-6.91-17.7-.17a16.7,16.7,0,0,1,1.85,2.87,10,10,0,0,1,.79,3.2l16.07-.17A31.32,31.32,0,0,0,319.07,19.91ZM304,26.82a11.59,11.59,0,0,1-.84,4A9.08,9.08,0,0,1,302,33.06l17.37-.17a21.36,21.36,0,0,0,.67-5.73C320.08,27,304.06,26.82,304,26.82Zm15.06-6.91-17.7-.17a16.7,16.7,0,0,1,1.85,2.87,10,10,0,0,1,.79,3.2l16.07-.17A31.32,31.32,0,0,0,319.07,19.91ZM304,26.82a11.59,11.59,0,0,1-.84,4A9.08,9.08,0,0,1,302,33.06l17.37-.17a21.36,21.36,0,0,0,.67-5.73C320.08,27,304.06,26.82,304,26.82Zm15.06-6.91-17.7-.17a16.7,16.7,0,0,1,1.85,2.87,10,10,0,0,1,.79,3.2l16.07-.17A31.32,31.32,0,0,0,319.07,19.91ZM304,26.82a11.59,11.59,0,0,1-.84,4A9.08,9.08,0,0,1,302,33.06l17.37-.17a21.36,21.36,0,0,0,.67-5.73C320.08,27,304.06,26.82,304,26.82Zm15.06-6.91-17.7-.17a16.7,16.7,0,0,1,1.85,2.87,10,10,0,0,1,.79,3.2l16.07-.17A31.32,31.32,0,0,0,319.07,19.91ZM304,26.82a11.59,11.59,0,0,1-.84,4A9.08,9.08,0,0,1,302,33.06l17.37-.17a21.36,21.36,0,0,0,.67-5.73C320.08,27,304.06,26.82,304,26.82Zm15.06-6.91-17.7-.17a16.7,16.7,0,0,1,1.85,2.87,10,10,0,0,1,.79,3.2l16.07-.17A31.32,31.32,0,0,0,319.07,19.91ZM304,26.82a11.59,11.59,0,0,1-.84,4A9.08,9.08,0,0,1,302,33.06l17.37-.17a21.36,21.36,0,0,0,.67-5.73C320.08,27,304.06,26.82,304,26.82Zm15.06-6.91-17.7-.17a16.7,16.7,0,0,1,1.85,2.87,10,10,0,0,1,.79,3.2l16.07-.17A31.32,31.32,0,0,0,319.07,19.91ZM304,26.82a11.59,11.59,0,0,1-.84,4A9.08,9.08,0,0,1,302,33.06l17.37-.17a21.36,21.36,0,0,0,.67-5.73C320.08,27,304.06,26.82,304,26.82Zm15.06-6.91-17.7-.17a16.7,16.7,0,0,1,1.85,2.87,10,10,0,0,1,.79,3.2l16.07-.17A31.32,31.32,0,0,0,319.07,19.91ZM304,26.82a11.59,11.59,0,0,1-.84,4A9.08,9.08,0,0,1,302,33.06l17.37-.17a21.36,21.36,0,0,0,.67-5.73C320.08,27,304.06,26.82,304,26.82Zm15.06-6.91-17.7-.17a16.7,16.7,0,0,1,1.85,2.87,10,10,0,0,1,.79,3.2l16.07-.17A31.32,31.32,0,0,0,319.07,19.91ZM304,26.82a11.59,11.59,0,0,1-.84,4A9.08,9.08,0,0,1,302,33.06l17.37-.17a21.36,21.36,0,0,0,.67-5.73C320.08,27,304.06,26.82,304,26.82Zm15.06-6.91-17.7-.17a16.7,16.7,0,0,1,1.85,2.87,10,10,0,0,1,.79,3.2l16.07-.17A31.32,31.32,0,0,0,319.07,19.91Zm-17.87,14-.34.34a12.11,12.11,0,0,1-3.37,2.36,11,11,0,0,1-8.43,0,9.41,9.41,0,0,1-3.37-2.36l-.51-.51-17.54-.34a29.06,29.06,0,0,0,1.12,3.54,35.68,35.68,0,0,0,1.85,3.54l45.86-.67c.51-.84,1-1.85,1.52-2.87.34-1,.67-1.85,1-2.87Zm-17.54-3a11.74,11.74,0,0,1-.84-4.22v-.17l-16-.17v.34a29.55,29.55,0,0,0,.84,6.74L285,33.23A16.86,16.86,0,0,1,283.66,30.86Zm34.23-14.5A25.38,25.38,0,0,0,316,12.65L271.18,12a33.94,33.94,0,0,0-2.36,4.16c-.34,1-.67,2-1,2.87L286,18.89a9.57,9.57,0,0,1,3-2,11,11,0,0,1,8.43,0,10.44,10.44,0,0,1,2.87,1.91l18.21-.17A4.78,4.78,0,0,0,317.89,16.36ZM266.8,26.31l16-.17a9.06,9.06,0,0,1,.84-3.54,9.57,9.57,0,0,1,2-3l-17.87-.34A24,24,0,0,0,266.8,26.31Zm52.27-6.41-17.7-.17a16.7,16.7,0,0,1,1.85,2.87,10,10,0,0,1,.79,3.2l16.07-.17A31.32,31.32,0,0,0,319.07,19.91ZM304,26.82a11.59,11.59,0,0,1-.84,4A9.08,9.08,0,0,1,302,33.06l17.37-.17a21.36,21.36,0,0,0,.67-5.73C320.08,27,304.06,26.82,304,26.82Zm15.06-6.91-17.7-.17a16.7,16.7,0,0,1,1.85,2.87,10,10,0,0,1,.79,3.2l16.07-.17A31.32,31.32,0,0,0,319.07,19.91ZM304,26.82a11.59,11.59,0,0,1-.84,4A9.08,9.08,0,0,1,302,33.06l17.37-.17a21.36,21.36,0,0,0,.67-5.73C320.08,27,304.06,26.82,304,26.82Zm15.06-6.91-17.7-.17a16.7,16.7,0,0,1,1.85,2.87,10,10,0,0,1,.79,3.2l16.07-.17A31.32,31.32,0,0,0,319.07,19.91ZM304,26.82a11.59,11.59,0,0,1-.84,4A9.08,9.08,0,0,1,302,33.06l17.37-.17a21.36,21.36,0,0,0,.67-5.73C320.08,27,304.06,26.82,304,26.82Zm15.06-6.91-17.7-.17a16.7,16.7,0,0,1,1.85,2.87,10,10,0,0,1,.79,3.2l16.07-.17A31.32,31.32,0,0,0,319.07,19.91ZM304,26.82a11.59,11.59,0,0,1-.84,4A9.08,9.08,0,0,1,302,33.06l17.37-.17a21.36,21.36,0,0,0,.67-5.73C320.08,27,304.06,26.82,304,26.82Zm15.06-6.91-17.7-.17a16.7,16.7,0,0,1,1.85,2.87,10,10,0,0,1,.79,3.2l16.07-.17A31.32,31.32,0,0,0,319.07,19.91ZM304,26.82a11.59,11.59,0,0,1-.84,4A9.08,9.08,0,0,1,302,33.06l17.37-.17a21.36,21.36,0,0,0,.67-5.73C320.08,27,304.06,26.82,304,26.82Zm15.06-6.91-17.7-.17a16.7,16.7,0,0,1,1.85,2.87,10,10,0,0,1,.79,3.2l16.07-.17A31.32,31.32,0,0,0,319.07,19.91ZM304,26.82a11.59,11.59,0,0,1-.84,4A9.08,9.08,0,0,1,302,33.06l17.37-.17a21.36,21.36,0,0,0,.67-5.73C320.08,27,304.06,26.82,304,26.82Zm15.06-6.91-17.7-.17a16.7,16.7,0,0,1,1.85,2.87,10,10,0,0,1,.79,3.2l16.07-.17A31.32,31.32,0,0,0,319.07,19.91ZM304,26.82a11.59,11.59,0,0,1-.84,4A9.08,9.08,0,0,1,302,33.06l17.37-.17a21.36,21.36,0,0,0,.67-5.73C320.08,27,304.06,26.82,304,26.82Zm15.06-6.91-17.7-.17a16.7,16.7,0,0,1,1.85,2.87,10,10,0,0,1,.79,3.2l16.07-.17A31.32,31.32,0,0,0,319.07,19.91ZM304,26.82a11.59,11.59,0,0,1-.84,4A9.08,9.08,0,0,1,302,33.06l17.37-.17a21.36,21.36,0,0,0,.67-5.73C320.08,27,304.06,26.82,304,26.82Zm15.06-6.91-17.7-.17a16.7,16.7,0,0,1,1.85,2.87,10,10,0,0,1,.79,3.2l16.07-.17A31.32,31.32,0,0,0,319.07,19.91ZM304,26.82a11.59,11.59,0,0,1-.84,4A9.08,9.08,0,0,1,302,33.06l17.37-.17a21.36,21.36,0,0,0,.67-5.73C320.08,27,304.06,26.82,304,26.82Zm15.06-6.91-17.7-.17a16.7,16.7,0,0,1,1.85,2.87,10,10,0,0,1,.79,3.2l16.07-.17A31.32,31.32,0,0,0,319.07,19.91ZM304,26.82a11.59,11.59,0,0,1-.84,4A9.08,9.08,0,0,1,302,33.06l17.37-.17a21.36,21.36,0,0,0,.67-5.73C320.08,27,304.06,26.82,304,26.82Zm15.06-6.91-17.7-.17a16.7,16.7,0,0,1,1.85,2.87,10,10,0,0,1,.79,3.2l16.07-.17A31.32,31.32,0,0,0,319.07,19.91ZM304,26.82a11.59,11.59,0,0,1-.84,4A9.08,9.08,0,0,1,302,33.06l17.37-.17a21.36,21.36,0,0,0,.67-5.73C320.08,27,304.06,26.82,304,26.82ZM277.42,47.89a32,32,0,0,0,5.73,3.37,26.64,26.64,0,0,0,10.29,2,26,26,0,0,0,10.29-2,24.59,24.59,0,0,0,5.06-2.87Zm-6.58-7.25a26,26,0,0,0,3.88,4.89,13.6,13.6,0,0,0,2.3,2l33.39-.51a16.79,16.79,0,0,0,1.85-1.69,26.42,26.42,0,0,0,3.37-4.22C315.7,41.32,270.85,40.64,270.85,40.64Zm48.22-20.74-17.7-.17a16.7,16.7,0,0,1,1.85,2.87,10,10,0,0,1,.79,3.2l16.07-.17A31.32,31.32,0,0,0,319.07,19.91ZM304,26.82a11.59,11.59,0,0,1-.84,4A9.08,9.08,0,0,1,302,33.06l17.37-.17a21.36,21.36,0,0,0,.67-5.73C320.08,27,304.06,26.82,304,26.82Zm15.06-6.91-17.7-.17a16.7,16.7,0,0,1,1.85,2.87,10,10,0,0,1,.79,3.2l16.07-.17A31.32,31.32,0,0,0,319.07,19.91ZM304,26.82a11.59,11.59,0,0,1-.84,4A9.08,9.08,0,0,1,302,33.06l17.37-.17a21.36,21.36,0,0,0,.67-5.73C320.08,27,304.06,26.82,304,26.82ZM312.1,7.76a33.72,33.72,0,0,0-2.7-2.36L277.93,4.9a27.52,27.52,0,0,0-3.37,2.87,26.83,26.83,0,0,0-3.37,4L315,11.14a23.61,23.61,0,0,0-2.87-3.37ZM304,26.82a11.59,11.59,0,0,1-.84,4A9.08,9.08,0,0,1,302,33.06l17.37-.17a21.36,21.36,0,0,0,.67-5.73c.06-.17-16-.34-16-.34Zm17.2,21.58v3a24.33,24.33,0,0,0,4,.84,30,30,0,0,0,4.38.67,51.39,51.39,0,0,0,5.4.34,24.43,24.43,0,0,0,8.26-1.12,15.29,15.29,0,0,0,5.4-3.2Zm31.25-17a22.65,22.65,0,0,0-2-4L327.16,27a9.63,9.63,0,0,0,1.35,1.18,24.65,24.65,0,0,0,3.54,2.7,17.92,17.92,0,0,1,1.85,1.52l18.88-.17A4.33,4.33,0,0,1,352.46,31.37ZM321.26,12.65c0,.67-.17,1.18-.17,1.85a25.26,25.26,0,0,0,.34,3.71l19.22-.34a1.75,1.75,0,0,1-.84-1.35,1,1,0,0,1,.51-1,1.46,1.46,0,0,1,1-.51,3.28,3.28,0,0,1,1.35-.17h2.7c.51,0,1,.17,1.35.17s1,.17,1.35.17v-2ZM344.87.51c-1-.17-2-.17-3.2-.34A26.1,26.1,0,0,0,338,0a20.67,20.67,0,0,0-6.58,1,18,18,0,0,0-5.4,2.7.64.64,0,0,0-.34.34l22.43-.34V1c-1-.17-2-.34-3.2-.51ZM324.13,5.57a14.61,14.61,0,0,0-1.69,2.7,14.34,14.34,0,0,0-1,2.87l26.64-.34V5.91Zm22.59,17.54c-1.18-1-2.36-2-3.2-2.87l-.17-.17-21.25-.17a.58.58,0,0,0,.17.34,16.07,16.07,0,0,0,2.7,4.38l.67.67,23.1-.34A20.23,20.23,0,0,1,346.72,23.11Zm6.58,11.47-17.82-.17a2.14,2.14,0,0,1,.17,1q0,2.53-3.54,2.53a28.57,28.57,0,0,1-3.88-.17,18.91,18.91,0,0,1-3.54-.67,27,27,0,0,1-3.54-.84V39.8l32-.51c0-.67.17-1.35.17-2.19A6.38,6.38,0,0,0,353.3,34.57Zm-32,6.74v5.56l29.51-.34a12.77,12.77,0,0,0,1.57-3c.17-.51.34-1.18.51-1.69C353,41.66,321.26,41.32,321.26,41.32ZM389.72,1.19H378.59l-.67,2L390.39,3ZM370.83,13.33l-17.2-.17,1.52,4.72,17.2-.17-1.52-4.38Zm20.57-6.74-14.5-.17-1.35,4.22,17.2-.17c-.17-.17-1.35-3.88-1.35-3.88Zm2.36,7.08-19.22-.34-1.35,4.22,21.92-.34-1.35-3.54ZM356,20.41l1.52,4.72L411,24.46l1-3.2C411.92,21.09,356,20.41,356,20.41Zm30,21.75L387.36,46l16.52-.17L405,42.5Zm-25.29-7.42,1.52,4.55L383.31,39l.84-2.36.79,2.42,21.25-.34,1-3.37C407.25,35.42,360.72,34.74,360.72,34.74Zm27.6,14.67.84,2.53H401.8l.84-2.36Zm-22.88-.28,1,2.87H379.1l.84-2.7Zm-2.36-7.25,1.52,4.55L381,46.26l1.35-4Zm-4.72-14.33,1.52,4.5,48.67-.67,1-3.2Zm43-26.3-.51,1.69L418,2.76l.51-1.52Zm-2.87,8.94,17.2-.17,1-3-17-.22Zm-1.12,3.71-1.12,3.54,17.2-.17,1-3.2ZM368.47,6.25l-17.2-.17L352.79,11l17-.17A35.89,35.89,0,0,0,368.47,6.25Zm-1.69-5.06h-17.2l.84,2.36,17-.17-.67-2.19Z"/></g></g></svg>